<svg id="Слой_1" data-name="Слой 1" xmlns="http://www.w3.org/2000/svg" viewBox="0 0 19 32"><defs>
<style>.cls-1{fill:#eaeaea;}</style>
</defs><title>alfabank</title><path class="cls-1" d="M18.71,32H.29A.31.31,0,0,1,0,31.67V28.05a.31.31,0,0,1,.29-.33H18.71a.31.31,0,0,1,.29.33v3.62A.31.31,0,0,1,18.71,32ZM15.07,21.44a.29.29,0,0,1-.37-.19l-1.31-3.92H5.63L4.31,21.25a.28.28,0,0,1-.37.19L.88,20.16a.34.34,0,0,1-.17-.42C.9,19.16,6.06,3.92,6.32,3.12,6.83,1.59,7.49,0,9.5,0s2.65,1.56,3.18,3.12L18.3,19.75a.34.34,0,0,1-.17.42ZM9.52,5.06h0L6.86,13.57h5.29Z" transform="translate(0)"/></svg>