<svg id="Слой_1" data-name="Слой 1" xmlns="http://www.w3.org/2000/svg" viewBox="0 0 24.02 31.27"><defs><style>.cls-1{fill:#fff;}.cls-1,.cls-2{fill-rule:evenodd;}.cls-2{fill:#eaeaea;}</style></defs><title>avangard</title><polygon class="cls-1" points="0 0 24.02 0 24.02 31.27 0 31.27 0 0 0 0"/><path class="cls-2" d="M294.53,411.75h23V381.52h-23v30.22Zm23.5.53V381H294v31.27Zm-22.59-29.92v28.56h21.16v-17.8a10.27,10.27,0,0,0-10.35-10,10.17,10.17,0,0,0-10.3,10l0,17.31h10.16v-28Zm10.69,18.09c-2,0-3.69,1.26-3.65,3.34a3.44,3.44,0,0,0,3.65,3.38,3.33,3.33,0,0,0,3.47-3.34,3.37,3.37,0,0,0-3.47-3.38Z" transform="translate(-294 -381)"/></svg>