<svg id="Слой_1" data-name="Слой 1" xmlns="http://www.w3.org/2000/svg" viewBox="0 0 31.96 32.02"><defs><style>.cls-1{fill:#eaeaea;}</style></defs><title>gazprom</title>
    <path id="Фигура_9_копия" data-name="Фигура 9 копия" class="cls-1" d="M29.68,13.77c-.18.15-.35.28-.53.43a16.8,16.8,0,0,1-5.7,2.34C18,18,14.1,18.21,9.64,19.31A18.48,18.48,0,0,0,7,20.17a27.77,27.77,0,0,0,2.66,1.17A35.7,35.7,0,0,1,15,20.15c1-.18,4.1-.74,6.33-1.19,4-.87,9.93-2.75,8.36-5.19M27.08,8.69A21.64,21.64,0,0,0,24,7.62a7,7,0,0,1-2,1.09,36.62,36.62,0,0,1,3.7,1,3.17,3.17,0,0,0,1.32-1M7.34,14.1c5.27-1.55,10.79-2,16.39-3.53A12.69,12.69,0,0,0,18,10,64.68,64.68,0,0,0,7.82,12.07C6.57,12.45.06,14.3,1.94,16.9c0,0,1.11-1.55,5.39-2.8M3.71,23a1.9,1.9,0,0,0,.91,1.45A2.36,2.36,0,0,1,5,23.73c-.43-.23-.86-.46-1.29-.74m2.46-.22a7.8,7.8,0,0,1,1.41-.69c-.73-.33-1.52-.66-2.28-1a7.81,7.81,0,0,0-.93.68c.61.36,1.19.69,1.8,1M26.41,11.53a25.62,25.62,0,0,1-4.76,1.55c-1.8.46-6.16,1.09-10.84,2.11-1.47.33-5.5,1.27-7.48,2.95A9,9,0,0,0,4.85,19a12,12,0,0,1,3.58-1.48A74.38,74.38,0,0,1,16,16.06a65.85,65.85,0,0,0,10.06-2.37,7.25,7.25,0,0,0,2.28-1.2,8.13,8.13,0,0,0-2-1M28,10.58a9,9,0,0,1,1.47.76c.33-.64.12-1-.56-1.63a5.84,5.84,0,0,1-.91.86M3.46,20.11c-.48-.25-.79-.45-1.19-.71a1.05,1.05,0,0,0,.61,1.2c.17-.18.41-.33.58-.48M25.85,5.53a3.32,3.32,0,0,1-.73,1.07,22.5,22.5,0,0,1,2.35.79,3.33,3.33,0,0,0-1.62-1.85M1.07,10C6.6,6.42,12.71,4.28,23,6.09a1.92,1.92,0,0,0,1-1.32,24.75,24.75,0,0,0-9-1.22C11.82,3.65,6,4.87,2.83,6.73l1-1.19A30.82,30.82,0,0,1,15.95,2.45a23.69,23.69,0,0,1,8.16,1.07A4.42,4.42,0,0,0,22,2.1C18.48.55,12,.4,6.73,2.76A12.15,12.15,0,0,1,8.91,1.52,18.88,18.88,0,0,1,17.09,0a12.63,12.63,0,0,1,8.34,3.1,3.06,3.06,0,0,1,.63,1.19A7.14,7.14,0,0,1,29.2,6.82a2.51,2.51,0,0,1,.2,1.57,4.36,4.36,0,0,1,1.37,1.22,3.37,3.37,0,0,1,.46,1.2,2.08,2.08,0,0,1-.41,1.78A2.44,2.44,0,0,1,31.88,14c.28,1.24-.53,2.46-1.57,3.4a17.5,17.5,0,0,1-6.08,2.9c-4.3,1.09-8.13,1.55-11.17,2.11a24.13,24.13,0,0,0,6.23.76,29,29,0,0,0,12.16-3.05s-.12.39-.25.74c-4.1,2.49-10.61,3.53-13.4,3.4A29.71,29.71,0,0,1,10.27,23a20.78,20.78,0,0,0-2.1.71,24.46,24.46,0,0,0,9.25,2.21,34,34,0,0,0,12.51-2.08c-.2.21-.3.51-.5.69a28.55,28.55,0,0,1-9.22,2.44,35.71,35.71,0,0,1-7.65-.46,26.47,26.47,0,0,1-5.7-1.9,1.48,1.48,0,0,0-.56.91c7.12,3.73,13.76,3.81,21.34,1.45l-.69.66C18.61,31,12.1,29.69,7.06,27.26A3.64,3.64,0,0,1,6.53,27c.48.82,4.33,3.64,8.64,4a21.54,21.54,0,0,0,8.74-1.12l-1.27.66A15.2,15.2,0,0,1,15,32a14.72,14.72,0,0,1-9.32-3.84,3.56,3.56,0,0,1-1.06-2A6,6,0,0,1,2.1,23.93a2.37,2.37,0,0,1-.2-1.7l.16-.45A4.86,4.86,0,0,1,.68,20.5a2.19,2.19,0,0,1,.15-2.32,3.6,3.6,0,0,1-.71-1.07A2.71,2.71,0,0,1,0,15.85a4.08,4.08,0,0,1,1-2.08c1.11-1.3,2.89-2.31,5.9-3.3a51.17,51.17,0,0,1,6.39-1.66C15.93,8.21,19,8,21.66,7.09a28.17,28.17,0,0,0-21,4.14Z" transform="translate(0.03 0.02)"/></svg>