<svg id="Слой_1" data-name="Слой 1" xmlns="http://www.w3.org/2000/svg" viewBox="0 0 31.04 17"><defs><style>.cls-1{fill:#eaeaea;}</style></defs><title>mkb</title><path id="Фигура_17" data-name="Фигура 17" class="cls-1" d="M22.59,6.46a1.19,1.19,0,0,1,.87-.17c2.51,0,5,0,7.52,0a8.7,8.7,0,0,1-.35,3.61,2.87,2.87,0,0,1-2.12,1.7c-1.08.19-2.18,0-3.26.11a4.44,4.44,0,0,0-.66.62C23.07,13.92,21.52,15.44,20,17c-2.63,0-5.26,0-7.89,0q5.25-5.25,10.47-10.53h0ZM4.36.27h0C2.91,1.73,1.46,3.2,0,4.65L11.62,16.34c3.56-3.61,7.15-7.17,10.7-10.78,1.82,0,3.65,0,5.47,0a3.18,3.18,0,0,0,2.67-1.49c.7-1.13.4-2.5.47-3.76-3.64,0-7.27,0-10.9,0a.62.62,0,0,0-.47.26l-7.19,7.1-3-3a1.94,1.94,0,0,1-.92-1.69A4,4,0,0,1,9.94,1.69a.8.8,0,0,1,1.09,0,6.22,6.22,0,0,1,.6.58,2.33,2.33,0,0,0,.31-1.5A1.6,1.6,0,0,0,10.66,0H4.83a.6.6,0,0,0-.47.27Z" transform="translate(0 0)"/></svg>