<svg id="Слой_1" data-name="Слой 1" xmlns="http://www.w3.org/2000/svg" viewBox="0 0 29 29"><defs><style>.cls-1{fill:#eaeaea;}</style></defs><title>otkrytie</title><path class="cls-1" d="M14.5,0A14.5,14.5,0,1,0,29,14.5,14.5,14.5,0,0,0,14.5,0M11.44,21.61a1.26,1.26,0,0,1,.62.82,1.33,1.33,0,0,1-.16,1,1.16,1.16,0,0,1-1,.55,1.75,1.75,0,0,1-.71-.16l-.68-.32a9.24,9.24,0,0,1-4.79-8.26V13.77A9.27,9.27,0,0,1,9.49,5.5l.66-.31a1.68,1.68,0,0,1,.7-.16,1.18,1.18,0,0,1,1,.55,1.33,1.33,0,0,1,.16,1,1.26,1.26,0,0,1-.64.84,5,5,0,0,0-2.84,4.53v5.14a5,5,0,0,0,2.86,4.54m12.87-6.39a9.24,9.24,0,0,1-4.79,8.26l-.68.32a1.72,1.72,0,0,1-.71.16,1.17,1.17,0,0,1-1-.55,1.34,1.34,0,0,1-.15-1,1.25,1.25,0,0,1,.61-.82,5,5,0,0,0,2.87-4.54V11.93A5,5,0,0,0,17.57,7.4a1.26,1.26,0,0,1-.64-.84,1.34,1.34,0,0,1,.15-1,1.18,1.18,0,0,1,1-.55,1.66,1.66,0,0,1,.71.16l.66.31a9.26,9.26,0,0,1,4.81,8.27Z"/></svg>