<svg id="_1" data-name="1" xmlns="http://www.w3.org/2000/svg" viewBox="0 0 660.39 543.16"><defs><style>.cls-1{fill:#eaeaea;stroke:#eaeaea;stroke-miterlimit:10;stroke-width:5px;fill-rule:evenodd;}</style></defs><title>pochta</title><path class="cls-1" d="M-819.05,14.47c-.86-7.94-6.34-14.16-10.78-20.4-4.7,4.1-8.39,9.91-8.23,16.34-.25,9.66,6,17.73,11.85,24.78C-824.3,28.1-818.81,22.13-819.05,14.47Z" transform="translate(1173.86 315.06)"/><path class="cls-1" d="M-796.38-52.63a105.73,105.73,0,0,1-11.05-16.22c-3.09,5.5-8.23,9.58-10.95,15.29-2.49,8.66,3.55,16.45,7.31,23.72l1.23.16A45,45,0,0,0-796.38-52.63Z" transform="translate(1173.86 315.06)"/><path class="cls-1" d="M-811.32,47.92c4.47-3.64,10-9.51,6.92-15.67-2.9-4.31-6.69-8-9.44-12.43-1.88,4.79-4.15,9.45-5.62,14.39C-820.38,40.11-815.51,44.6-811.32,47.92Z" transform="translate(1173.86 315.06)"/><path class="cls-1" d="M-867.4-105.56c1.91,7.06,8.63,11.28,14.24,15.31-3.75-6.56-6.92-15.22-2.32-22.17,3.38-4.78,2.62-11,.46-16.07C-860.51-121.88-868-114.89-867.4-105.56Z" transform="translate(1173.86 315.06)"/><path class="cls-1" d="M-809.35-7.34c-2.87,5-6.36,10.6-5.25,16.66,2,5.77,5.31,11,8.73,16,2.12-4.56,4.37-9.13,5.52-14C-799.29,3.89-804.19-2.61-809.35-7.34Z" transform="translate(1173.86 315.06)"/><path class="cls-1" d="M-799.47-98c-1.86,3.83-4.35,7.32-6.15,11.18a75.74,75.74,0,0,0,.89,12.57c1.39,5.61,4.59,10.58,8.06,15.14,2.28-5.67,5.54-11,6.75-17.06.77-4.2.35-8.49-.13-12.69C-793.84-91.17-796.63-94.66-799.47-98Z" transform="translate(1173.86 315.06)"/><path class="cls-1" d="M-833.9-119.7c-.23,5.21,4.52,8.95,4.68,14.11.18,5.46-2.09,10.57-4.62,15.27,5.66-4,12.38-8.26,14.23-15.35.57-9.32-7-16.17-12.35-22.85A23.17,23.17,0,0,0-833.9-119.7Z" transform="translate(1173.86 315.06)"/><path class="cls-1" d="M-782.64-62.73c-.93-2.49-3.79-4-5.41-6.08a76.17,76.17,0,0,0-6.42,13.1C-789.56-55.91-785.88-59.43-782.64-62.73Z" transform="translate(1173.86 315.06)"/><path class="cls-1" d="M-807-20.56c-.81,7.15,4.23,12.85,6.72,19.12,4.23-5.24,8.75-11.19,8.64-18.26.22-6.64-3.42-12.47-6.17-18.25C-800.93-32.16-806.74-27.57-807-20.56Z" transform="translate(1173.86 315.06)"/><path class="cls-1" d="M-800.06,34.21a18.94,18.94,0,0,1-3.06,10.38c8.41,5.31,18,8.16,27.67,10.29C-781.91,46.12-790.93,39.9-800.06,34.21Z" transform="translate(1173.86 315.06)"/><path class="cls-1" d="M-834.87,43.52c2.35-10-2.68-19.82-8.68-27.47-4.77,6.18-8.74,13.4-9.28,21.33,0,11,5.81,20.49,9.31,30.52C-840.86,59.69-836.13,52.17-834.87,43.52Z" transform="translate(1173.86 315.06)"/><path class="cls-1" d="M-886.68,11.41c1.16,4.87,3.38,9.41,5.49,13.94,3.47-5,6.77-10.23,8.75-16,1.12-6.08-2.44-11.63-5.26-16.7C-882.86-2.59-887.83,4-886.68,11.41Z" transform="translate(1173.86 315.06)"/><path class="cls-1" d="M-817.45-98.62c-8.65,4.44-14.6,14.73-11.43,24.39,4.09,4,6.63,9.22,8.62,14.55a89.93,89.93,0,0,1,7.71-10c2.72-3.08,4.69-7.28,3.71-11.46C-810.4-87.52-813.66-93.33-817.45-98.62Z" transform="translate(1173.86 315.06)"/><path class="cls-1" d="M-878.44-78.64c.49,7.92,8.15,12.4,11.63,19,2-5.3,4.52-10.46,8.58-14.49,3.26-9.64-2.72-20-11.38-24.45C-873.73-92.63-877.8-86-878.44-78.64Z" transform="translate(1173.86 315.06)"/><path class="cls-1" d="M-890.67-52.63a46.74,46.74,0,0,0,14.15,23.79c3.9-7.64,10.3-15.64,7.89-24.72-2.84-5.66-7.75-9.91-11.14-15.23A92.07,92.07,0,0,1-890.67-52.63Z" transform="translate(1173.86 315.06)"/><path class="cls-1" d="M-875.74,47.92c4.16-3.3,9-7.76,8.14-13.63-1.43-5-3.78-9.66-5.6-14.51-2.72,4.47-6.54,8.14-9.45,12.46C-885.72,38.41-880.25,44.3-875.74,47.92Z" transform="translate(1173.86 315.06)"/><path class="cls-1" d="M-857.25-5.9C-861.59.37-867.1,6.49-868,14.39c-.29,7.67,5.2,13.7,7.12,20.8,5.71-6.82,11.68-14.58,11.9-23.88C-848.52,4.61-852.21-1.73-857.25-5.9Z" transform="translate(1173.86 315.06)"/><path class="cls-1" d="M-904.87,64.72a24.73,24.73,0,0,0,11.63-.17,18,18,0,0,1,4.65-8.11c2.81-3.21,7.2-4,10.87-5.8q-2.07-1.77-4.08-3.57A49.33,49.33,0,0,0-904.87,64.72Z" transform="translate(1173.86 315.06)"/><path class="cls-1" d="M-904.77-63.24c3.25,3.57,7.09,7.27,12.2,7.55-1.56-4.59-4-8.79-6.15-13.12C-900.75-67-902.72-65.06-904.77-63.24Z" transform="translate(1173.86 315.06)"/><path class="cls-1" d="M-843.52,95.74c3.85,6.18,11.24,11.37,18.78,8.81-5.09-2.34-10.14-6.35-11.14-12.16-.62-7.95,3.59-15,6.72-21.91,3.17-7.13,1.31-15.36-2.75-21.71a200.29,200.29,0,0,1-11.62,29.5A182.47,182.47,0,0,1-855,49a22.23,22.23,0,0,0-2.21,23.24c3.19,6.22,6.42,12.86,6,20.07-.89,5.82-5.95,9.69-10.85,12.25C-854.57,107.1-847.34,101.77-843.52,95.74Z" transform="translate(1173.86 315.06)"/><path class="cls-1" d="M-805,56c-10.32-3.81-19-11.37-24.91-20.56.76,12.94,6,27.09,18.22,33.27,5.07,2.63,10.51,0,14.29-3.57A11.76,11.76,0,0,0-805,56Z" transform="translate(1173.86 315.06)"/><path class="cls-1" d="M-853.51,107.33a30.4,30.4,0,0,1-7.74.24c-9.8,15.27-23.1,28.49-39.13,37.13,1.24,1.8,2.5,3.61,3.77,5.41C-878.6,140.26-863.94,124.9-853.51,107.33Z" transform="translate(1173.86 315.06)"/><path class="cls-1" d="M-901.63,68.67c-1.95-.26-3.85-.93-5.81-.77-6.18,1.43-11.84,4.45-17.23,7.72a64.88,64.88,0,0,1,11,5C-909.26,77-907.52,70.57-901.63,68.67Z" transform="translate(1173.86 315.06)"/><path class="cls-1" d="M-898.63,95.42c3.64-.81,6-4,7.76-7-3.5.25-8,2-10.77-1.06-2-3.3-.66-7.56,1.7-10.31,3.19-4.14,8.74-5.2,13.67-5.39-1.81-1.39-3.65-2.73-5.56-4-2.89.67-6.08,1-8.19,3.3-5.23,4.46-11.13,10.79-9.31,18.27C-908.51,94-903.1,96.73-898.63,95.42Z" transform="translate(1173.86 315.06)"/><path class="cls-1" d="M-786.66-87.12a50.12,50.12,0,0,0,.61,14.42c.78,3.13,3.42,5.23,5.66,7.35a52.12,52.12,0,0,0,9-23A21.14,21.14,0,0,1-786.66-87.12Z" transform="translate(1173.86 315.06)"/><path class="cls-1" d="M-911.62,54.89c9.64-2.13,19.28-5,27.71-10.29a19.2,19.2,0,0,1-3.14-10.4C-896.15,39.92-905.13,46.16-911.62,54.89Z" transform="translate(1173.86 315.06)"/><path class="cls-1" d="M-748-44.17c-1.06-.95-2.1-1.9-3.14-2.85-4.23,5.56-8.35,11.37-10.75,18C-766.21-16.74-768-3.6-774,8.11c6.78.1,13.68-2.94,17.53-8.65C-746.73-12.73-746.09-29.36-748-44.17Z" transform="translate(1173.86 315.06)"/><path class="cls-1" d="M-781.85,64.68c-6.22-7.67-14-14.33-23.44-17.61q-2,1.82-4.05,3.58c3.62,1.77,7.94,2.55,10.73,5.68a18.53,18.53,0,0,1,4.82,8.28A29.46,29.46,0,0,0-781.85,64.68Z" transform="translate(1173.86 315.06)"/><path class="cls-1" d="M-766.36,10.55c-2.16,10.82-2.77,22.91,2.55,33,5.09-6.57,9.37-14,11.17-22.14a254.48,254.48,0,0,0,4.54-29.2c-1.46,3.22-3.6,6.05-5.23,9.17-1.67,8.58-2.65,17.8-7.58,25.25A46.55,46.55,0,0,1-760,7.67,50.18,50.18,0,0,1-766.36,10.55Z" transform="translate(1173.86 315.06)"/><path class="cls-1" d="M-773.46,67.43a90.58,90.58,0,0,1,14,7.31c4-1.18,7.92-2.34,11.91-3.46-4-4.49-8.91-8.6-14.94-10-7.65-1.72-15.31-3.43-22.88-5.49C-781.39,59.66-778.75,65.12-773.46,67.43Z" transform="translate(1173.86 315.06)"/><path class="cls-1" d="M-886.74-1.43c2.54-6.28,7.57-12,6.73-19.23-.41-7-6-11.65-9.31-17.3-2.51,5.89-6.3,11.64-6,18.29C-895.55-12.58-890.86-6.72-886.74-1.43Z" transform="translate(1173.86 315.06)"/><path class="cls-1" d="M-816.22-133.85A21.58,21.58,0,0,0-819-116c2.57,8.6,6.65,16.66,10.71,24.63a64.34,64.34,0,0,0,6-10.16c-2-2.85-4-5.72-5.68-8.73C-812.39-117.45-814.41-125.73-816.22-133.85Z" transform="translate(1173.86 315.06)"/><path class="cls-1" d="M-836.47-152.69c-1.67,4.7.17,9.93,3.49,13.44a110.87,110.87,0,0,1,8.89,11.69c1.77-2.84,3.89-5.62,4.59-9a34.1,34.1,0,0,0-2.14-15.13c-2.36-6.46-4.48-13-6.78-19.49A116.25,116.25,0,0,0-836.47-152.69Z" transform="translate(1173.86 315.06)"/><path class="cls-1" d="M-769.77-120c-2.15,4.84-5,10.71-10.85,11.65-5.71.76-10.9-2.67-15.09-6.16a98.41,98.41,0,0,1-17.68-22.37,68,68,0,0,0,6,19.89c4.56,9.48,10.59,18.79,19.76,24.37,4.74,3,11.12,1.69,15.14-1.93C-765.22-100.45-763.75-112.72-769.77-120Z" transform="translate(1173.86 315.06)"/><path class="cls-1" d="M-815-171.56c-2.52,5.27-5.68,10.88-4.54,16.95,1.21,7.11,7.08,11.93,10.26,18.12,1.38-7.31,2.28-14.82,1.58-22.26A18.82,18.82,0,0,0-815-171.56Z" transform="translate(1173.86 315.06)"/><path class="cls-1" d="M-824.42-185.75c-1.61,5.8-.4,12,1.94,17.4a34.2,34.2,0,0,1,4.61-14.7,76.76,76.76,0,0,0,9.07-19.58A27.28,27.28,0,0,0-824.42-185.75Z" transform="translate(1173.86 315.06)"/><path class="cls-1" d="M-843.55-181.49c-4.1,2.08-8.93,5-9.81,9.88.44,7.91,7.2,13.22,10,20.28,2.31-7.25,9.41-12.36,9.73-20.31C-834.6-176.53-839.42-179.47-843.55-181.49Z" transform="translate(1173.86 315.06)"/><path class="cls-1" d="M-897-88.86c-.52,4.52-1,9.17.07,13.67,1.32,5.59,4.33,10.56,6.45,15.87a37,37,0,0,0,8-14.18,72.94,72.94,0,0,0,1.11-13.36c-1.86-3.78-4.18-7.33-6.2-11A43.49,43.49,0,0,1-897-88.86Z" transform="translate(1173.86 315.06)"/><path class="cls-1" d="M-879.37-158.8c-.68,7.45.21,15,1.58,22.29,3.21-6.14,9-11,10.25-18,1.17-6.08-2-11.75-4.55-17A19.11,19.11,0,0,0-879.37-158.8Z" transform="translate(1173.86 315.06)"/><path class="cls-1" d="M-810.92-19.74c-.52-7-6.44-11.48-9.72-17.18-3.19,5.94-8.87,11.06-9,18.23-.28,7.43,5,13.28,8.26,19.46C-815.89-4.65-809.59-11.36-810.92-19.74Z" transform="translate(1173.86 315.06)"/><path class="cls-1" d="M-884.69-101.54a59.11,59.11,0,0,0,5.94,10.13c4.09-7.85,8.07-15.85,10.67-24.34a21.65,21.65,0,0,0-2.78-18.08,112.13,112.13,0,0,1-3.81,14.19C-876.82-113-880.76-107.21-884.69-101.54Z" transform="translate(1173.86 315.06)"/><path class="cls-1" d="M-865.48-151.42a34.54,34.54,0,0,0-2.05,14.84c.64,3.4,2.79,6.23,4.69,9a93.32,93.32,0,0,1,9.14-12.15c3.36-3.66,4.79-9.17,2.85-13.87-2.19-6-4.47-12-7.91-17.35C-861-164.41-863.16-157.89-865.48-151.42Z" transform="translate(1173.86 315.06)"/><path class="cls-1" d="M-1009.52-47.09c10.06.15,19.86-4.62,26.62-12,1.66-1.66,1.93-4.11,2.58-6.24-6.12,1.19-12.65,1.25-18.59-.79l-.89-1.49c-6.61,5.71-16.26,6.93-21.77,14A15.06,15.06,0,0,0-1009.52-47.09Z" transform="translate(1173.86 315.06)"/><path class="cls-1" d="M-977.81-43.38a30.93,30.93,0,0,1-4-10.51c-7.69,2.94-16,6.12-21.07,12.94-2.5,3.16-2.24,7.42-1.36,11.12C-993.45-27.68-983.49-34.71-977.81-43.38Z" transform="translate(1173.86 315.06)"/><path class="cls-1" d="M-823.23-44.7c.68-8.32-1.46-17.28-7.62-23.23-2.53,5.93-8.09,10.06-10,16.27-1,8.53,3,16.5,6.27,24.12C-829.33-32-824.23-37.63-823.23-44.7Z" transform="translate(1173.86 315.06)"/><path class="cls-1" d="M-1035.21,39.82A71.35,71.35,0,0,0-1009,24c4.85-4.51,7.28-10.8,10.66-16.35C-993.83,0-990-8.1-984.09-14.77a62.19,62.19,0,0,1-9.49-.4,158,158,0,0,1-12.84,19.51c-4.24,5.34-8.84,10.57-14.72,14.17a25.3,25.3,0,0,1,2.44-10.34c4.7-9.69,11.48-18.24,19-25.89,2.92-3.08,6.67-5.57,8.08-9.79-3.24,1.06-6.76.91-10,1.72a147,147,0,0,0-23,28.11C-1031.63,13.44-1036,26.55-1035.21,39.82Z" transform="translate(1173.86 315.06)"/><path class="cls-1" d="M-1040.74-64.51c6.57,4.29,15,4.22,22.25,2a35.74,35.74,0,0,0,18.26-10.78c2.42-3.71,4.34-7.74,7-11.31-11.57-1.34-23.53-.36-34.39,4C-1034.19-77.58-1038.56-71.26-1040.74-64.51Z" transform="translate(1173.86 315.06)"/><path class="cls-1" d="M-959.93-47.8a43.48,43.48,0,0,1-14.6,5.66c-3.56,2.53-6.39,6-9.24,9.31-3.31,4.36-7.1,9-7.38,14.68,11.31,1.1,22.54-5,29.17-13.93A16.6,16.6,0,0,0-959.93-47.8Z" transform="translate(1173.86 315.06)"/><path class="cls-1" d="M-927.61-40.21c3.54,4.65,6.62,9.82,7.91,15.57,1.59,7.6,2.49,16,7.44,22.27a309.53,309.53,0,0,1,13.85-30.22,24.59,24.59,0,0,0,1.1-20.47A32,32,0,0,1-905-58.57a14.29,14.29,0,0,1-10,4.41c.68,5.81-1,11.53-3.78,16.57A38.11,38.11,0,0,1-927.61-40.21Z" transform="translate(1173.86 315.06)"/><path class="cls-1" d="M-1006-131.36a28.64,28.64,0,0,1,11-3.74,236.22,236.22,0,0,0-24.45-17.65c-9.27-4.87-18.81-9.59-29.16-11.62,4.57,11.26,10.16,23.18,20.84,29.86C-1021.51-130.13-1013.31-129.88-1006-131.36Z" transform="translate(1173.86 315.06)"/><path class="cls-1" d="M-1008.46,72.18c4.29,3.14,9.23,6.62,14.85,5.82,4.82-.79,6.85-7.17,4.53-11.13-3.89-7.45-10.34-13.22-17.07-18.07-3.77-2.57-8.69-5.26-13.26-3.15a8.06,8.06,0,0,0-3.09,10.6C-1019.3,62.67-1014,67.75-1008.46,72.18Z" transform="translate(1173.86 315.06)"/><path class="cls-1" d="M-976.15,35.83c6.56-7.55,8.58-17.74,10.08-27.34,1.36-11.19,2.84-22.43,2.72-33.72-1.83,1.46-3.7,2.88-5.59,4.27-1.27,12.15-3.19,24.32-7.19,35.91a43.27,43.27,0,0,1-5.2,9.74c-2.81-15,4.43-29,8.1-43.12-1.7.93-3.94,1.33-4.91,3.2a133.23,133.23,0,0,0-14.09,30.16c-3.13,10.32-3.7,22,1.63,31.74C-985.4,43.63-980.24,40.32-976.15,35.83Z" transform="translate(1173.86 315.06)"/><path class="cls-1" d="M-945.49,114.46c7.31-9.75,17.71-17.6,29.86-19.92a7.45,7.45,0,0,0-5.82-5.8,31.06,31.06,0,0,0-8.9,4.43c-.19-2.71.59-5.78-.69-8.23-4-.34-9.22-.4-11.65,3.37-6.76,9-11.86,19.08-16.71,29.19-3.36,7-5.58,14.54-10.29,20.77-1.61,2.09-4.23,3.71-7,3.23-5.87-1.32-9.79-7.12-16-7.47-6.18-.8-11.87,2.53-16.06,6.78a6.72,6.72,0,0,0,6.19,3.73c7.19.41,14.53,2,20.56,6.13,5,3.41,11.18,4.31,17.08,5.13C-961.6,140.78-954.45,126.85-945.49,114.46Z" transform="translate(1173.86 315.06)"/><path class="cls-1" d="M-678.36,140.69c-4.32-4.15-10-7.54-16.23-6.64-6.52.43-10.57,7.07-17,7.54-5.65-.59-7.83-6.67-10.27-10.94-6.21-14.53-12.79-29.1-22.17-41.9-2.47-4.29-8.16-4.2-12.46-3.73-.15,2.71-.2,5.42-.17,8.14a29.72,29.72,0,0,0-8.91-4.38,7.21,7.21,0,0,0-5.81,5.79c12.09,2.27,22.44,10.08,29.74,19.74,9,12.42,16.21,26.41,19.47,41.49,5.87-.81,12-1.69,17-5.07,6-4.14,13.37-5.78,20.56-6.17A6.61,6.61,0,0,0-678.36,140.69Z" transform="translate(1173.86 315.06)"/><path class="cls-1" d="M-709.46,154.44c-3.09,1-6.74,2-8.45,5-1.21,3.32,3.1,3.69,5.34,3.15,4.24-.76,9.77-1.81,11.56-6.26C-701.22,152-706.78,154-709.46,154.44Z" transform="translate(1173.86 315.06)"/><path class="cls-1" d="M-656.71-132.17A31.65,31.65,0,0,1-643.56-128a424.93,424.93,0,0,1,42-14,172.56,172.56,0,0,1,23.84-3.4c-19.6,11.66-42.14,17-64.4,20.81-1.73,6.55-6.4,11.7-12.19,15,20-7.68,41-11.58,61.75-16.46,15.16-3.84,30.56-7.65,44.42-15.13,12.29-6.22,24.33-14.67,30.64-27.31-7-.19-13.94.41-20.9.64-23.26,2.28-45.7,9.28-67.74,16.74Q-631.74-142.55-656.71-132.17Z" transform="translate(1173.86 315.06)"/><path class="cls-1" d="M-827.72,168.66q5.75,8.73,11.52,17.44,2.5-3.6,5.1-7.11c-5.68-8.87-11.59-17.59-17.36-26.38-4.46,7.89-8.83,15.82-13.21,23.76,1.59,2.9,3.22,5.78,4.86,8.65C-833.75,179.59-830.75,174.11-827.72,168.66Z" transform="translate(1173.86 315.06)"/><path class="cls-1" d="M-826,127.67A98.73,98.73,0,0,1-843.53,103a89.76,89.76,0,0,1-7.25,12.24c-8.82,12.72-21.21,22.24-31.83,33.34,9.45-3.16,19.46-6.18,27-13,3,1.53,6.09,3.08,9.48,3.56,5.16,1,10.22-1.17,14.67-3.56,7.54,6.83,17.54,9.87,27,13C-811.51,141.44-818.81,134.62-826,127.67Z" transform="translate(1173.86 315.06)"/><path class="cls-1" d="M-983.51,153.62a2.39,2.39,0,0,0-2.19,3.68c1.52,2.46,4.42,3.56,7.06,4.4,3.17.86,6.69,1.68,9.77.07-.17-1.58-.38-3.34-1.85-4.28A23.57,23.57,0,0,0-983.51,153.62Z" transform="translate(1173.86 315.06)"/><path class="cls-1" d="M-930.07-190.78c-2.11,4.53.06,9.43,2.25,13.47a22.79,22.79,0,0,1,6.32-9.28c4.36-3.64,10-4.94,15.53-5.43a87.19,87.19,0,0,1-8.3-9.1l-1.25-1.57c-5.87-8.63-19.43-8.1-23.22-18.6-4.72-.94-10.4-1.19-14.13,2.36-5,6-2.57,15.72,3.82,19.75,7-5.3,16.84-5.12,23.94-.17l.9,2A14.6,14.6,0,0,0-930.07-190.78Zm-8.05-16.37c-2.5,2.75-6.82-1.51-3.92-3.89C-939.72-213.48-935.69-209.63-938.12-207.15Z" transform="translate(1173.86 315.06)"/><path class="cls-1" d="M-853.14,140.74c2.56,5,5.29,10,9.58,13.75,4.32-3.72,7-8.8,9.66-13.76A22.94,22.94,0,0,1-853.14,140.74Z" transform="translate(1173.86 315.06)"/><path class="cls-1" d="M-1027.35-110.92a56.22,56.22,0,0,0,18.83,3.1c4.43-.06,8.53-1.9,12.76-3-4.34-4.57-8.13-9.91-9.41-16.19a47.48,47.48,0,0,1-19-.94,24.54,24.54,0,0,0-17.45,2.58C-1039.81-118.46-1034-113.06-1027.35-110.92Z" transform="translate(1173.86 315.06)"/><path class="cls-1" d="M-1050.75-93.69c6.4,4.78,14,8.39,22.13,8.46,8.7-.1,17.77-1.47,25.25-6.19a35.73,35.73,0,0,1-7.56-10.77,45.23,45.23,0,0,0-17.69-3.69C-1037.26-105.4-1046.24-101.38-1050.75-93.69Z" transform="translate(1173.86 315.06)"/><path class="cls-1" d="M-843.54-88.16c6.63-3,10.42-10.4,10.1-17.52-.22-4.77-3.62-8.4-6.06-12.2-1.34,1.1-2.7,2.19-4.08,3.24l-3.94-3.28c-2.44,3.81-5.84,7.45-6.1,12.2C-853.94-98.59-850.15-91.21-843.54-88.16Z" transform="translate(1173.86 315.06)"/><path class="cls-1" d="M-857,35.6c-5.55,7.52-12.23,14.7-20.91,18.58-2.24,1.08-4.61,1.9-6.77,3.13C-887.36,59-888.85,62-889.72,65a43.79,43.79,0,0,0,5.59,4,11.82,11.82,0,0,0,10.9-1.38A34.09,34.09,0,0,0-859.12,47C-858.46,43.21-856.59,39.53-857,35.6Z" transform="translate(1173.86 315.06)"/><path class="cls-1" d="M-797.29-189.25c-2.9,3.15-3.95,7.5-3.93,11.69,6.73-8.78,18-12.79,23.89-22.39C-784.54-197.7-792.18-195.15-797.29-189.25Z" transform="translate(1173.86 315.06)"/><path class="cls-1" d="M-880.28,103.59c-5.77,3.86-12.28,8.64-13.12,16.09a33.84,33.84,0,0,0,17.76-7.46c9.56-7.86,15.07-19.47,18.35-31.16A48.54,48.54,0,0,1-862.46,68C-869.6,71.71-872,80-878,84.93c-6.51,6.17-16.58,9.36-19.31,18.8,11-.27,18.76-9.14,24.83-17.29a22.59,22.59,0,0,1,8.11-8C-863.67,89.33-872.2,97.67-880.28,103.59Z" transform="translate(1173.86 315.06)"/><path class="cls-1" d="M-836.74-135.57c-2.35-3.69-5.59-6.88-6.79-11.24-1.25,4.4-4.55,7.62-6.87,11.4-2.59,6.3,2.74,12,6.88,16.14C-839.34-123.41-833.94-129.24-836.74-135.57Z" transform="translate(1173.86 315.06)"/><path class="cls-1" d="M-804.26-144.87c-1.57,7.57-.72,16.25,4.55,22.25A11.76,11.76,0,0,0-787.13-119c3.15-.88,5.25-3.56,6.87-6.23-3.93-.45-8-1.19-11.36-3.32C-797.82-132-801.72-138.4-804.26-144.87Z" transform="translate(1173.86 315.06)"/><path class="cls-1" d="M-852.58-27.93c3.56-6.81,6.76-14.67,6.55-22.65-1.37-6.84-7.57-11.18-10.24-17.46a29.39,29.39,0,0,0-7.13,25.52A28.82,28.82,0,0,0-852.58-27.93Z" transform="translate(1173.86 315.06)"/><path class="cls-1" d="M-836.38-67.53c2.08-3.08,4.68-6.83,3.08-10.71-1.31-4.63-6.62-5.3-10.18-7.52-2.44,1.36-5.09,2.31-7.51,3.7A8,8,0,0,0-853.32-72c2.76,5.58,7.51,10,9.77,15.83C-841.8-60.31-839.07-63.93-836.38-67.53Z" transform="translate(1173.86 315.06)"/><path class="cls-1" d="M-843.54,3.29c2-4.42,5.9-7.68,7.72-12.21a12.92,12.92,0,0,0-.76-12.7c-2.33-3.58-4.37-7.32-6.58-11l-.82.17c-2.23,3.56-4.21,7.27-6.52,10.79a12.72,12.72,0,0,0-1.06,11.95C-849.83-4.79-845.68-1.37-843.54,3.29Z" transform="translate(1173.86 315.06)"/><path class="cls-1" d="M-876.14-19.63c-1.25,8.33,5,15,10.45,20.39,3.49-6.42,9-12.66,8.22-20.45-.61-6.71-5.86-11.48-8.85-17.16C-869.84-31.27-875.66-26.66-876.14-19.63Z" transform="translate(1173.86 315.06)"/><path class="cls-1" d="M-874.1-174.4a17.68,17.68,0,0,0,2.26-6.77,97.59,97.59,0,0,1-10.22-17.73c-1.82-.31-3.63-.65-5.42-1,0,1.59,0,3.18,0,4.78-2.38-.68-4.77-1.35-7.15-2C-886-191.42-878.35-183.95-874.1-174.4Z" transform="translate(1173.86 315.06)"/><path class="cls-1" d="M-838.54-291.58c-3.57-4.29-11.46-1.75-11.77,3.87.54,7.6,5,14.11,6.81,21.41,1.33-5.16,3.65-10,5.45-15C-837-284.57-835.68-288.78-838.54-291.58Z" transform="translate(1173.86 315.06)"/><path class="cls-1" d="M-782-58.43c-2.71,3.1-8.16,3.89-8.7,8.54a23.92,23.92,0,0,0,2.06,17.28A318.79,318.79,0,0,1-774.82-2.43c4.16-4.73,5.16-11.42,6.56-17.38a40,40,0,0,1,8.86-20.4,30,30,0,0,1-9.08,2.5c-2.59-5.08-4.26-10.7-3.55-16.45A14.91,14.91,0,0,1-782-58.43Z" transform="translate(1173.86 315.06)"/><path class="cls-1" d="M-784.32-187.7c-4.22,2.78-8.44,5.78-11.42,9.94a29.28,29.28,0,0,1-7.37,6.88,48.72,48.72,0,0,1,3.34,17.47c2.72-3.1,4-7.16,5.51-10.91,2.13-5.05,1.77-11.13,5.64-15.4,2.55-3.7,7-5.07,11-6.68C-779.88-186.86-782.11-187.28-784.32-187.7Z" transform="translate(1173.86 315.06)"/><path class="cls-1" d="M-852.5-248.39c4.3.3,8.62.79,12.94.37s9.15-.18,13.09-2.5c1.55-.82.14-2.13-.91-2.5-5.42-2.33-11.48-2-17.25-2.19-5.78.38-12.31-.19-17.11,3.65C-859.26-249.23-855.77-248.64-852.5-248.39Z" transform="translate(1173.86 315.06)"/><path class="cls-1" d="M-826.52-202.36c7.46.28,15.2-3,19.35-9.39a44,44,0,0,0-.59,6.88,16.87,16.87,0,0,0,7.1-3.72,36,36,0,0,0-2.54,6.86,36.13,36.13,0,0,0,7.17-2.21c-.38,1.7-.72,3.42-1,5.14,5.77-2.07,11.56-4.45,16.34-8.39-.08,1.77-.15,3.54-.2,5.32,3.35-1.06,7-2,9.42-4.74,6.08-5.42,8.19-13.82,8.77-21.65a66.24,66.24,0,0,1-24.89,3.5c-12.32-.7-24.84-.57-36.86-3.7a16.25,16.25,0,0,0,6.59,6.33,25.22,25.22,0,0,0-5.69,2.42c1.62,2.5,4.13,4.14,6.67,5.6-4.94,4.52-11,8.14-17.85,8.33C-832.37-203.95-829.62-202.43-826.52-202.36Zm53.74-16.43a14.64,14.64,0,0,1-4.06,7.25c-2.46-6.84-10.52-6-16.19-7.69C-786.28-219.39-779.54-218.51-772.78-218.79Z" transform="translate(1173.86 315.06)"/><path class="cls-1" d="M-809.75,92.37c5,6,11.88,11.14,20,11.37-1.6-5.24-5.65-9.29-10.22-12.09-6.17-3.9-12.19-8.54-15.93-15A24.77,24.77,0,0,0-824.65,68,47,47,0,0,1-829.75,81,76.75,76.75,0,0,0-822,99.66c6,10.34,16.18,18.91,28.43,20-1-7.79-7.88-12.51-13.83-16.58-7.8-5.84-16-14-15.23-24.63C-816.82,81.52-814.21,87.86-809.75,92.37Z" transform="translate(1173.86 315.06)"/><path class="cls-1" d="M-927.55,74.75a91.44,91.44,0,0,1,14-7.37c5.24-2.31,7.86-7.74,11.82-11.55-7.55,2-15.19,3.75-22.81,5.49-6,1.34-10.92,5.47-15,10Q-933.5,73-927.55,74.75Z" transform="translate(1173.86 315.06)"/><path class="cls-1" d="M-805-198.84A94.1,94.1,0,0,1-813.89-183c-2.49,2.57-.15,6,.79,8.73,4.41-9.51,11.92-17.1,20.58-22.85-2.36.65-4.69,1.32-7,2q0-2.4,0-4.77Z" transform="translate(1173.86 315.06)"/><path class="cls-1" d="M-933,5.25c0-5.06-4.09-8.55-5.9-13a254.78,254.78,0,0,0,4.62,29.61c1.85,8,6,15.19,11,21.6,5.35-10,4.72-22.15,2.52-33a49.78,49.78,0,0,1-6.34-2.82,46.08,46.08,0,0,1,.9,18.89C-930.38,20.29-931.54,12.53-933,5.25Z" transform="translate(1173.86 315.06)"/><path class="cls-1" d="M-660.82,54.45c-1.26,6.28-5.6,11.29-10.14,15.53-6.13,5.79-13.39,11.4-22.13,12,4.25.82,8.64,2.07,12.07,4.84,7.42,7.25,11,17.46,12.95,27.42a31.38,31.38,0,0,0-18.69-15.62c-8.57-2.21-18.1-1.06-25.45,4-5.54,4.2-10.39,9.89-12.06,16.78,1.89,4.1,3.72,8.23,5.56,12.36-.6-6.06.24-12.44,4-17.41,6.05-9.87,20-13.28,30.14-7.94,8.65,4.27,14.36,14.38,12.83,24a21.66,21.66,0,0,1-8.46,15.15c-4.92,3-10.93,2.18-16.37,3.21-1.43.1-1.81,1.7-2.57,2.64.93,1.59,2.42,3,4.43,2.77,6.85,0,13.7-.22,20.56-.24a18,18,0,0,1,4.74-9.35c10.43-11.25,19.47-25.42,19.39-41.27.24-11.36-4.19-22-8.14-32.43C-660.2,65.69-660.58,60-660.82,54.45Z" transform="translate(1173.86 315.06)"/><path class="cls-1" d="M-970.24-229.92l3.31,1.8a14.5,14.5,0,0,0,.14,1.49,28.52,28.52,0,0,0,4.19,11.18c.73-8.3,5.51-15.88,4.59-24.34-.29-4.37-2-8.46-3.89-12.34a27.57,27.57,0,0,1-2.6-10.3l2.3-.48c9.83,1.29,15.62-8,23.83-11.36-2.24-1-4.65-2.11-7.18-1.69-5.45,1.11-10.24,4.14-14.33,7.84h0l-7.67,3.94h0q-2.69,1.13-5.28,2.44a35.26,35.26,0,0,0,1.65,9c1.26,3.89,3.94,7.27,4.57,11.36l-3.18.39c-5.63,1.78-9.36,6.58-12.39,11.36C-978.42-231.11-973.55-233.49-970.24-229.92Z" transform="translate(1173.86 315.06)"/><path class="cls-1" d="M-991.42-139.48c-9.14-12.6-9.31-28.81-15.71-42.59-5.53-10-14.65-18.51-25.9-21.48-2.23,11.22-1.3,23.47,4.94,33.32C-1019.28-156.59-1005.84-146.6-991.42-139.48Z" transform="translate(1173.86 315.06)"/><path class="cls-1" d="M-973.9-125.52c-8.31-5.3-19-8.2-28.42-4.22,1.69,9.75,8.48,18.62,18.07,21.65-8-.62-16.67.67-22.65,6.44,3.91,8.45,12.93,13.33,22,14-5.87,4.61-11.82,10.82-11.58,18.84,8.06,1.61,17.07,1.31,24-3.66a26.93,26.93,0,0,0-5.64,11.87c-1,5.15.59,10.33,2.91,14.9a26.82,26.82,0,0,0,21.07-14.23c-.57,6.12.35,13.44,5.59,17.43A26,26,0,0,0-935.9-52.7c3,5.9,9,9.85,15.32,11.49a23.61,23.61,0,0,0,1.35-17.06c4.09,1,8.86.95,11.82-2.5-3.79-5.12-7.27-10.56-9.26-16.67a52.67,52.67,0,0,1-31.82,1.52c-4.41-1.43-9.91-3.55-10.6-8.82-.46-7.37,3.17-14.1,5.81-20.76,2.75-7,7.86-14.09,5.52-22-1.57-7.54-8.61-11.64-14.4-15.73-14.25-10.46-28-22.88-35.25-39.34a64.85,64.85,0,0,0,4.84,34.88C-988.35-138.68-978.89-134-973.9-125.52Z" transform="translate(1173.86 315.06)"/><path class="cls-1" d="M-937.76-233.08c-1.43-2-3.21-4-3.38-6.63a16.54,16.54,0,0,1,3.06-9.39,37.23,37.23,0,0,0,6.24-14.56c-.1-3.84-3-6.7-5.3-9.48-.89,11-12.38,18.19-12,29.5C-949.21-237.48-942.62-234.86-937.76-233.08Z" transform="translate(1173.86 315.06)"/><path class="cls-1" d="M-932.4-226.95c-.59,6.35,4.63,11,9,14.66l3.38.15c.1.18.18.36.28.53a20.84,20.84,0,0,0,13.59,9.75q-.11-2.67-.21-5.32c4.81,3.9,10.57,6.33,16.37,8.37q-.52-2.58-1.09-5.13a34.65,34.65,0,0,0,7.21,2.21,36.35,36.35,0,0,0-2.53-6.88,16.3,16.3,0,0,0,7.07,3.74,40.81,40.81,0,0,0-.61-7c2.39,3.18,5.2,6.32,9.12,7.56,5.85,2.56,13.39,3.16,18.4-1.47a25.44,25.44,0,0,1-17.51-8.57,16,16,0,0,0,6.44-5.41,29.91,29.91,0,0,0-5.69-2.4,15.18,15.18,0,0,0,6.5-6.36c-12,3.26-24.59,3-36.93,3.74a67,67,0,0,1-24.77-3.49c0,.42.08.84.12,1.27h-4.85A23.2,23.2,0,0,0-932.4-226.95Zm38.28,7.69c-3.65,1.52-7.88.83-11.43,2.72-2.3.85-3.63,3-4.7,5-1.84-2.12-3.52-4.45-4-7.28C-907.53-218.53-900.83-219.36-894.12-219.26Z" transform="translate(1173.86 315.06)"/><path class="cls-1" d="M-1118.15-180a196.13,196.13,0,0,0,45.78,27.26c9.67,4.63,20.19,7,30.6,9.28-2.41-2.95-3.58-7.3-7.45-8.69-24.47-12-49.42-25.82-65.82-48.29,9.16,3.12,17.34,8.41,25.13,14q20.63,15.32,40.7,31.34c-1.6-4.42-2.82-9-4.69-13.3-7.39-6.59-15.12-12.83-22.36-19.61-12.91-11.43-24.27-24.53-38-35-9.27-7-18.5-14.81-29.82-18.22-1.14,11.73-.22,23.85,4,34.91C-1135.78-195.43-1126.94-187.31-1118.15-180Z" transform="translate(1173.86 315.06)"/><path class="cls-1" d="M-1053.23-96c1.24-1.76,2.58-3.44,4-5.07-20.54-.6-41.18-3-61-8.49,21.82-3.35,44.25-.57,65.45,5.15q3.11-1.53,6.25-2.95c-9.59-3.1-19.29-5.85-29-8.39-23.14-6-47.11-8.09-70.95-8.08-10.13.46-20.37.53-30.29,2.92,2.16,2.09,4.86,3.46,7.41,5,15.65,9.17,32.71,16.39,50.74,19.08C-1091.68-93.8-1072.37-95.34-1053.23-96Z" transform="translate(1173.86 315.06)"/><path class="cls-1" d="M-1141.63-142.59c16.71,9.45,35.62,13.74,54.11,18.2,18.56,4,37.17,8.18,55,14.83a24.23,24.23,0,0,1-12.44-15c-22.24-3.91-44.79-9.16-64.37-20.83a171.88,171.88,0,0,1,23.69,3.35,421.07,421.07,0,0,1,42.15,14,31.52,31.52,0,0,1,13.15-4.15q-22.19-9.23-44.92-17c-20-6.82-40.22-13.59-61.15-17-10.94-2-22.08-2.27-33.16-2.28C-1163.73-156.81-1152.93-148.59-1141.63-142.59Z" transform="translate(1173.86 315.06)"/><path class="cls-1" d="M-918.72-235.21l5.48-.61c-1.07-4.61-1.43-9.47-3.48-13.79-1.37-3.35-5.6-4.32-8.82-3.7a2.74,2.74,0,0,0-1.68,4.16A110.82,110.82,0,0,0-918.72-235.21Z" transform="translate(1173.86 315.06)"/><path class="cls-1" d="M-1103.62-66.26c21.49-1.8,43.15-3.72,64-9.36,2.8-1.69,4.71-4.63,7.52-6.39a47.78,47.78,0,0,1-10.27-2.7c-18.66,5.14-38.2,7.81-57.54,6.06,4.61-2.81,10-3.64,15.23-4.79,12-2.57,24.31-3.28,36.52-4.4-1.59-1.06-3.15-2.16-4.69-3.28-18.86,1.83-37.86,1.71-56.73,3.5-11.89,1.8-23.35,5.8-34.28,10.74-4.47,2.14-9.11,4-13.09,7C-1139.59-65.18-1121.41-65.18-1103.62-66.26Z" transform="translate(1173.86 315.06)"/><path class="cls-1" d="M-1074.45-193.71c11.45,11.4,24,22,38.34,29.53,4.28,2,8.66,3.71,12.88,5.83-6.4-7.12-11.67-15.41-13.7-24.88-9.84-6.65-18.06-15.29-26.69-23.36a92.82,92.82,0,0,1-24.46-37.71c6.58,4.64,12.92,9.77,18,16,11,13.93,22.07,27.77,32.9,41.8-.19-2.75-.25-5.49-.25-8.24.1-3.51-2.4-6.33-3.75-9.4a397.75,397.75,0,0,0-28.63-46.32A267.61,267.61,0,0,0-1107-291.33c-4.16,18.62-6,39,2.28,56.79C-1097.39-219.15-1086.25-205.9-1074.45-193.71Z" transform="translate(1173.86 315.06)"/><path class="cls-1" d="M-845.83-302.47q0,3.65,0,7.29h4.56q0-3.65,0-7.28h5.56c0-1.3,0-2.6.07-3.89h-5.6c0-2.06,0-4.13,0-6.19h-4.56c0,2.07,0,4.14-.05,6.21-1.86,0-3.72,0-5.56,0,0,1,.06,2.92.07,3.9Z" transform="translate(1173.86 315.06)"/><path class="cls-1" d="M-759.23-177.39c2.36-4,4.38-9.12,2.15-13.66-2.86-6.08-9.63-8.79-15.83-10a71.19,71.19,0,0,1-8.14,9c2.1.31,4.22.6,6.33,1A21.23,21.23,0,0,1-759.23-177.39Z" transform="translate(1173.86 315.06)"/><path class="cls-1" d="M-835.3-258.25c1.67-11.8,3.31-23.68,7.21-35-4.21,1.83-5.79,6.4-6.93,10.48a187.66,187.66,0,0,0-4.83,24.21Z" transform="translate(1173.86 315.06)"/><path class="cls-1" d="M-830.23-237.06c5.82,6.38,15,7.82,23.27,7.92a28.11,28.11,0,0,0-7.62-9.49c-5.59-5-13.5-6.16-20.74-6.23A21.45,21.45,0,0,0-830.23-237.06Zm13.79,4c-5.18-1.47-9.52-4.72-13.28-8.46C-824.32-240.8-819-238-816.44-233Z" transform="translate(1173.86 315.06)"/><path class="cls-1" d="M-824.42-255.38c2.92-7,5.79-14,8.23-21.16.65-2.52,1.65-5.18,1.19-7.79a10.19,10.19,0,0,0-8.6-3.7c-2.78,0-3.69,3.12-4.42,5.25-2.35,8.08-3.57,16.44-4.72,24.75A56.69,56.69,0,0,1-824.42-255.38Z" transform="translate(1173.86 315.06)"/><path class="cls-1" d="M-912.32-258.42c1.46,0,2.94,0,4.42,0,0-2.45,0-4.89.06-7.33h5.63c0-1.33,0-2.66,0-4h-5.6c0-2,0-4.09,0-6.12h-4.5q0,3,0,6.11H-918c0,1.32,0,2.65,0,4h5.67C-912.37-263.31-912.36-260.87-912.32-258.42Z" transform="translate(1173.86 315.06)"/><path class="cls-1" d="M-918.56-229.77a55.26,55.26,0,0,0,16,.14c1.45-.26,3.21-.47,4-1.95a41.79,41.79,0,0,0-23.28.13A6.62,6.62,0,0,0-918.56-229.77Z" transform="translate(1173.86 315.06)"/><path class="cls-1" d="M-851.74-244.87a44.74,44.74,0,0,0-10.94,1.28c-7.62,1.77-13.91,7.58-17.37,14.46a42.8,42.8,0,0,0,13.41-2A22.85,22.85,0,0,0-851.74-244.87Zm-5.56,3.38c-3.75,3.77-8.12,7-13.28,8.47C-868-238-862.71-240.81-857.3-241.49Z" transform="translate(1173.86 315.06)"/><path class="cls-1" d="M-915.42-253.53c.58,4.58,3.59,8.31,5.38,12.45,1.73-4.15,4.73-7.86,5.31-12.42C-906.2-257.64-913.9-257.61-915.42-253.53Z" transform="translate(1173.86 315.06)"/><path class="cls-1" d="M-903.1-250.1c-2.34,4.4-2.63,9.5-3.76,14.28l5.45.62A119,119,0,0,0-892.92-249a2.81,2.81,0,0,0-1.75-4.38C-897.69-253.82-901.59-253.09-903.1-250.1Z" transform="translate(1173.86 315.06)"/><path class="cls-1" d="M-862.61-255.36a60.46,60.46,0,0,1,8.34-2.7c-1.51-9.16-2.39-18.58-5.74-27.29-1-3.19-4.91-3.16-7.51-2.09-2.34.91-5.68,2.56-4.57,5.65C-870.25-272.58-866-264.07-862.61-255.36Z" transform="translate(1173.86 315.06)"/><path class="cls-1" d="M-797.33,199.71c-1.59-2.51-3.22-5-4.92-7.41q-2.52,3.57-5.07,7.12,1.56,2.41,3.1,4.88a56.39,56.39,0,0,0-6.66,4.69q10.25,4,20.49,8.11c0-7.32-.06-14.64-.1-22Q-793.93,197.41-797.33,199.71Z" transform="translate(1173.86 315.06)"/><path class="cls-1" d="M-640.21-20.06a236.2,236.2,0,0,0-30.06-25.23C-674-43.7-678-43.6-681.94-43.87c1,1.78,2,3.63,2.8,5.51,5.59,3.09,11.11,6.33,16.38,10,9.77,6.84,19.47,14.84,24.69,25.84a54.12,54.12,0,0,1-11.41-6.27c-10.52-7.64-20.58-16-29.19-25.78a51.33,51.33,0,0,1-1.11,6.25c11.27,11.26,20.59,24.23,29.87,37.13a48.28,48.28,0,0,0,34.15,18.45,81.27,81.27,0,0,0-6.38-23.29C-626.38-5.25-633.12-13-640.21-20.06Z" transform="translate(1173.86 315.06)"/><path class="cls-1" d="M-695.49,164c-2.34-1.3-4.93-2.81-7.72-2.17-2,0-3.64,1.43-2.93,3.51a63.14,63.14,0,0,0,7.15,9.4c2.54,2.85,6.85,2.76,10.07,1.18,2-.64,3.31-3.41,1.92-5.2C-689.15,167.76-692.37,165.82-695.49,164Z" transform="translate(1173.86 315.06)"/><path class="cls-1" d="M-711.87,164.65c-2.54-1.47-7.09-.94-7.09,2.73a12.56,12.56,0,0,0,9.58,8.77c2.86.46,6.06,2,8.81.29C-703.89,172.16-706.92,167.2-711.87,164.65Z" transform="translate(1173.86 315.06)"/><path class="cls-1" d="M-747.57,157.33c-8.52-1.61-17.08-3.28-25.19-6.39q-2,2.73-3.86,5.52a87.56,87.56,0,0,0,11.22,3.65c14.13,3.47,28.54,6.28,43.16,6a9.94,9.94,0,0,0,.78-6.53A118.56,118.56,0,0,1-747.57,157.33Z" transform="translate(1173.86 315.06)"/><path class="cls-1" d="M-682.48,156.89c-5.13-.5-10.58-1.69-15.53.3.39,1.57.67,3.41,2.25,4.3A53.4,53.4,0,0,0-681.63,169c4.91,1.49,7.17-4.92,7.34-8.73C-676.18,157.73-679.63,157.46-682.48,156.89Z" transform="translate(1173.86 315.06)"/><path class="cls-1" d="M-619.5-38.9c-14.49-6.37-29.22-12.23-44.08-17.7.59,1,1.2,2,1.81,3.06C-644.31-46.13-625-38-615.22-20.69c-17.92-6.67-33.87-17.69-48.48-29.85-.65.75-1.3,1.52-1.93,2.28,15.2,12.28,28.84,26.34,43.88,38.82,11,10.15,26.09,15.06,40.9,14.59A76,76,0,0,0-594.22-20C-600.56-28.58-609.68-34.86-619.5-38.9Z" transform="translate(1173.86 315.06)"/><path class="cls-1" d="M-585.51-88.24c-16.26-1.21-32.58-1.32-48.81-2.85-1.52,1.11-3,2.19-4.58,3.23,12.51,1.17,25.12,1.89,37.43,4.6,4.83,1.15,10,1.86,14.21,4.61-19.3,1.76-38.79-.94-57.41-6A49.9,49.9,0,0,1-655-82c3.77,2.18,5.91,6.83,10.61,7.23,20.58,5,41.72,7,62.78,8.61,17.29.86,34.93.84,51.76-3.72a113.34,113.34,0,0,0-15.63-8C-558.17-83.37-571.6-87.84-585.51-88.24Z" transform="translate(1173.86 315.06)"/><path class="cls-1" d="M-1031-57.6A35,35,0,0,1-1041.38-61c-15.79,7.09-32.49,13-49.94,13.73,13.08-9.33,28.41-14.76,43.68-19.3,2.19-.74,5.11-.9,5.73-3.65-8.6,1.37-17.19,2.84-25.8,4.13-10.16,1.71-20.46,3.35-30,7.45a69.86,69.86,0,0,0-36.77,32.72c16,2.68,31.89-2.14,46.63-7.88C-1069.18-42.34-1050.69-51.61-1031-57.6Z" transform="translate(1173.86 315.06)"/><path class="cls-1" d="M-595.31-60.84c-16.21-4.93-33.22-6.27-49.83-9.34a4.08,4.08,0,0,0,3.43,3c16,4.72,32.26,10.16,46,20-17.46-.72-34.16-6.68-50-13.74-3.17,1.81-6.72,2.58-10.22,3.41,12.72,3.68,24.76,9.3,36.87,14.6,9.92,4.26,19.32,9.78,29.75,12.78,11.72,4,24.24,6.2,36.62,4.46C-561-42.84-577.29-55.23-595.31-60.84Z" transform="translate(1173.86 315.06)"/><path class="cls-1" d="M-602.73-119.37c-15.55,2.75-30.68,7.39-45.77,12,2.14,1,4.28,2,6.44,3,6.83-2.19,13.94-3.38,21-4.58,14.67-2.11,29.72-3,44.41-.6-19.88,5.5-40.56,7.89-61.14,8.52q2.1,2.43,4,5.05c14.37.47,28.76,1.51,43.14.65,25.77-1,50.56-10.71,71.86-24.87l.08-.8c-10.12-2.39-20.59-2.38-30.93-2.83C-567.4-123.67-585.24-122.68-602.73-119.37Z" transform="translate(1173.86 315.06)"/><path class="cls-1" d="M-989,157.21c-5.67-2.13-11.9-.75-17.7.07-2.5.56-7.14,1.52-5.8,5.09.77,3,2.57,7.49,6.38,6.77,5.37-1.43,10.22-4.46,14.75-7.6C-989.81,160.62-989.45,158.81-989,157.21Z" transform="translate(1173.86 315.06)"/><path class="cls-1" d="M-1008.42-34.61a155.71,155.71,0,0,1-19.63,18.53c-6.53,5.13-13.07,10.51-20.91,13.53a45.26,45.26,0,0,1,7-10.55c9.45-10.69,21.69-18.39,34.09-25.2a49.53,49.53,0,0,1,2.82-5.58,26.1,26.1,0,0,1-11.83-1.39c-15.94,11.89-31.74,24.7-43.34,41-6.35,9.3-9.54,20.39-11,31.46a48.37,48.37,0,0,0,33.72-17.88c9.46-13,18.81-26.31,30.32-37.65A50.48,50.48,0,0,1-1008.42-34.61Z" transform="translate(1173.86 315.06)"/><path class="cls-1" d="M-991.6,154.15c2.63.06,4.56-3.19,2.18-5-4.57-1.47-9.56-.5-14.1-2.1-3.81-.91-6.53-4-8.6-7.12-4.72-7.89-4.69-18.66,1.06-26,6.66-10.34,22-13.05,32.07-6.21A24.56,24.56,0,0,1-968.43,132c1.82-4.25,3.75-8.44,5.65-12.64-3.64-13.16-17.12-23.13-30.89-21.75-10.5.18-20,7-25.09,15.92,1.72-9.56,5.4-19.14,12.2-26.25,3.45-3.19,8.21-4.42,12.67-5.48-9.12-.25-16.5-6.46-22.82-12.4-4.42-4.21-8.52-9.26-9.62-15.43-.1,5.44-.45,11-2.33,16.15-4,10.69-8.64,21.56-8.38,33.2-.08,15.81,8.89,30,19.32,41.19a18.11,18.11,0,0,1,4.79,9.46C-1005.82,154-998.7,154.35-991.6,154.15Z" transform="translate(1173.86 315.06)"/><path class="cls-1" d="M-1021.45-48.2l-1.91-2.35c-14.56,12.22-30.55,23.2-48.47,29.84,9.56-16.73,28-24.92,45-32.16,1.82-.44,2.47-2.33,3.48-3.67-15,5.33-29.73,11.35-44.31,17.72a62.54,62.54,0,0,0-21.08,14c-7.74,8.67-14.15,18.75-17.47,30,14.82.48,30-4.44,40.95-14.6C-1050.26-21.9-1036.67-36-1021.45-48.2Z" transform="translate(1173.86 315.06)"/><path class="cls-1" d="M-753.87,133.36q.24-11.18.44-22.35c-6.76,2.61-13.52,5.23-20.31,7.73a52.33,52.33,0,0,0,6.27,4.78c-20.08,28.29-40.3,56.48-60.41,84.74q-15.36-27.86-30.72-55.7c-10.31,15.76-20.78,31.41-31.13,47.15-2.28-1.53-4.56-3.05-6.81-4.6-.12,7.32-.1,14.65-.13,22q10.21-4.06,20.44-8.09a47.17,47.17,0,0,0-6.63-4.71c7.72-12,15.79-23.67,23.44-35.66,10.43,18.17,20.54,36.53,30.84,54.77q33.94-47.5,67.83-95Q-757.3,130.85-753.87,133.36Z" transform="translate(1173.86 315.06)"/><path class="cls-1" d="M-859.15,208.25c-3.9-5.36-7.78-10.74-11.57-16.18-1.76,2.32-3.31,4.78-4.92,7.21,5.6,8.12,11.46,16.07,17.15,24.14q6.52-11.57,13-23.14c-1.51-2.74-3-5.47-4.51-8.21C-853.21,197.36-856.08,202.86-859.15,208.25Z" transform="translate(1173.86 315.06)"/><path class="cls-1" d="M-938.75,157.19a116.46,116.46,0,0,1-26.79,2.38,9.26,9.26,0,0,0,.74,6.55,177.69,177.69,0,0,0,18.72-1.06c12-2.16,24.14-4.08,35.55-8.49a58.54,58.54,0,0,0-3.81-5.62C-922.2,154-930.5,155.62-938.75,157.19Z" transform="translate(1173.86 315.06)"/><path class="cls-1" d="M-981.64,162.48a8.51,8.51,0,0,0-5.47-.54c-5,2.09-10.24,4.81-13.31,9.43-1.3,4.07,3.87,5.51,6.9,5.73,5.07,0,7.51-5,10.33-8.33C-982,167.05-979.6,164.48-981.64,162.48Z" transform="translate(1173.86 315.06)"/><path class="cls-1" d="M-976.05,165.08c-4.39,2.81-7.36,7.27-10.43,11.38a4.74,4.74,0,0,0,3.73.72c4.05-.77,8.61-1.3,11.54-4.53,1.56-1.69,3.46-3.87,2.95-6.33C-969.3,163-973.72,163.61-976.05,165.08Z" transform="translate(1173.86 315.06)"/><path class="cls-1" d="M-847.18-258.54A189.34,189.34,0,0,0-852-282.75c-1.16-4.09-2.76-8.62-6.93-10.49,3.84,11.32,5.55,23.18,7.18,35Z" transform="translate(1173.86 315.06)"/><path class="cls-1" d="M-960-9.54c-1.14,14.94-2.43,30.21.79,45a22.26,22.26,0,0,0,6.4,12.21c3.9-5.77,5-12.75,6.48-19.42a304.74,304.74,0,0,0,3.82-35.52,63.77,63.77,0,0,1-5.84,7.1,54.68,54.68,0,0,1-3.78,26.85c-2.51-2.79-2.77-6.66-3.09-10.2a66.38,66.38,0,0,1,.85-17.57C-956.28-3.87-958.21-6.65-960-9.54Z" transform="translate(1173.86 315.06)"/><path class="cls-1" d="M-949.25-38.85c-1.63-1.28-3.21-2.6-4.81-3.91a30.94,30.94,0,0,0-5.46,24.12c1,6.32,4.77,11.75,8.91,16.48,4-4.45,7.73-9.58,8.55-15.65a47.76,47.76,0,0,0-2.23-22.77C-945.94-40-947.59-39.4-949.25-38.85Z" transform="translate(1173.86 315.06)"/><path class="cls-1" d="M-939.1-44.12c-1.79,14.74-1.19,31.29,8.4,43.45,3.84,5.78,10.75,8.86,17.58,8.8-6-11.8-7.71-25-12.1-37.4C-927.66-35.81-931.76-41.54-936-47Z" transform="translate(1173.86 315.06)"/><path class="cls-1" d="M-944.13,80.78c5,2.2,10.73-.52,15.88,1.24,1.67,1.12,1.16,3.29,1.28,5,2.47-1,5.28-2.33,7.92-1.08,3.32,1.09,4.43,4.72,6.09,7.44.74-1.86,2.27-3.91,1.19-6-1.69-3.2-5.18-4.85-8.29-6.35a174.53,174.53,0,0,0-21.41-6.78C-942.49,76.25-945.25,78.49-944.13,80.78Z" transform="translate(1173.86 315.06)"/><path class="cls-1" d="M-926.23,128.41c13.66,19.37,27.58,38.55,41.22,57.94,1.69-2.42,3.31-4.88,4.94-7.33-13.11-18.54-26.42-36.94-39.52-55.48,2.14-1.51,4.25-3.07,6.31-4.69-6.75-2.66-13.55-5.19-20.31-7.83.12,7.45.2,14.9.37,22.35C-930.93,131.67-928.62,130-926.23,128.41Z" transform="translate(1173.86 315.06)"/><path class="cls-1" d="M-773.47,80.32c3.74-1.4,7.22-3.49,11.06-4.7a60.42,60.42,0,0,0-16.18-7.48c-2.28-.76-4.59.28-6.84.6,2.28,1,4.57,2.28,6,4.42C-777.37,75.49-776.29,78.74-773.47,80.32Z" transform="translate(1173.86 315.06)"/><path class="cls-1" d="M-901-72.71a52.25,52.25,0,0,0,.57-14.4,21.14,21.14,0,0,1-15.21-1.26,52.4,52.4,0,0,0,8.9,23C-904.41-67.47-901.76-69.57-901-72.71Z" transform="translate(1173.86 315.06)"/><path class="cls-1" d="M-765.76,85.13c1.9.55,3.78,1.15,5.64,1.86.09-1.7-.37-3.85,1.3-5,5.17-1.72,10.87.87,15.92-1.18,1.09-2.48-1.68-4.52-2.72-6.57a194,194,0,0,0-20.43,6.42c-3.33,1.43-6.85,3.1-9,6.15-1.48,2.15,0,4.55,1.1,6.47C-772.45,89.56-770.07,85.84-765.76,85.13Z" transform="translate(1173.86 315.06)"/><path class="cls-1" d="M-786.68,144.76a109.33,109.33,0,0,1-39.14-37.19,36.77,36.77,0,0,1-7.77-.17c10.52,17.48,25.12,32.79,43.08,42.69C-789.24,148.31-788,146.52-786.68,144.76Z" transform="translate(1173.86 315.06)"/><path class="cls-1" d="M-784.64,95.58c5.33-.44,8.23-6.37,7.08-11.19-1.33-6.08-6-10.62-10.71-14.37-1.94-1.71-4.67-1.68-7-2.35-1.9,1.26-3.73,2.6-5.54,4,5.36.1,11.46,1.52,14.48,6.39,2.15,2.92,3.09,8.1-.33,10.45-3.07,1.25-6.37.23-9.51-.08C-794,92.57-789.79,96.64-784.64,95.58Z" transform="translate(1173.86 315.06)"/><path class="cls-1" d="M-738.12-199.18c6.36-3.81,8.81-13.13,4.38-19.27-3.59-4.06-9.68-3.81-14.55-2.84-2,5.44-7.25,8.68-12.4,10.72a30.87,30.87,0,0,0-10.9,7.62c3.23,1.22,6.61,2.06,9.73,3.59C-754.87-204.29-745-204.53-738.12-199.18Zm-8.52-13c1,1,3.13,1.8,2.5,3.58-.18,3-5.18,3-5.37,0C-750.21-210.54-747.93-211.43-746.64-212.2Z" transform="translate(1173.86 315.06)"/><path class="cls-1" d="M-843.53-239.5c1.64-.82,3.89-1.82,3.46-4.09,0-2-2.12-2.48-3.48-3.26-1.37.79-3.44,1.3-3.47,3.26C-847.48-241.31-845.16-240.32-843.53-239.5Z" transform="translate(1173.86 315.06)"/><path class="cls-1" d="M-830.07-186.19a41.35,41.35,0,0,0,9.9-14.08c-3.13.41-6.37.57-9.35,1.67-5.85,3.6-9.09,10.14-10.66,16.62C-836.72-183-832.89-183.74-830.07-186.19Z" transform="translate(1173.86 315.06)"/><path class="cls-1" d="M-727.51-18.63a30.49,30.49,0,0,0-5.55-24.16,35,35,0,0,1-4.52,3.66c-1.82.23-3.41-1-5.06-1.54A46.63,46.63,0,0,0-745-17.5c.9,5.95,4.6,11,8.51,15.34C-732.31-6.88-728.56-12.31-727.51-18.63Z" transform="translate(1173.86 315.06)"/><path class="cls-1" d="M-857.55-198.62c-3-1.09-6.23-1.24-9.35-1.64a41.75,41.75,0,0,0,9.89,14c2.79,2.52,6.66,3.16,10.13,4.28C-848.47-188.45-851.67-195-857.55-198.62Z" transform="translate(1173.86 315.06)"/><path class="cls-1" d="M-902.24-120A11.59,11.59,0,0,0-888-122c5.89-5.92,6.71-15.06,5.29-22.91-1.87,4.27-4,8.5-7.21,11.94a25.09,25.09,0,0,1-16.92,7.74C-905.53-123.29-904.23-121.29-902.24-120Z" transform="translate(1173.86 315.06)"/><path class="cls-1" d="M-887.29-153.1a50.15,50.15,0,0,1,3.39-17.8,28.7,28.7,0,0,1-7.49-7c-3-4.1-7.14-7.09-11.33-9.83a24.36,24.36,0,0,0-6.17,1.52c6,1.73,11.72,5.71,13.47,12C-893.92-166.77-891.54-159.39-887.29-153.1Z" transform="translate(1173.86 315.06)"/><path class="cls-1" d="M-885.81-177.54c0-4.25-1.06-8.66-4-11.83-5.14-5.8-12.71-8.39-19.91-10.57C-903.76-190.41-892.58-186.31-885.81-177.54Z" transform="translate(1173.86 315.06)"/><path class="cls-1" d="M-900.14-92.21c6.64-3.79,11.91-9.68,15.81-16.2a71.63,71.63,0,0,0,10.68-28.46,97.7,97.7,0,0,1-17.2,22c-4.06,3.56-9,6.83-14.66,6.7-6.33-.48-9.56-6.74-11.8-11.87-4.34,5.07-4.31,12.39-2.35,18.45C-917-94.14-907.8-88.23-900.14-92.21Z" transform="translate(1173.86 315.06)"/><path class="cls-1" d="M-878.24-202.64a73.81,73.81,0,0,0,8.7,19,34.62,34.62,0,0,1,5,15.53c2.21-5.31,3.45-11.24,2.17-16.94A27.58,27.58,0,0,0-878.24-202.64Z" transform="translate(1173.86 315.06)"/><path class="cls-1" d="M-659-170.06c6.31-9.88,7.33-22.23,5-33.52-14.06,4-25.35,16-29.11,30-3.55,11.57-5.27,24-12.53,34.06C-681.27-146.55-667.9-156.51-659-170.06Z" transform="translate(1173.86 315.06)"/><path class="cls-1" d="M-732.05-138.06c-6.63,4.66-9.66,13.8-6.58,21.39,3.27,7.81,7.07,15.44,9.63,23.53.86,3.57,2,7.64.1,11.09s-5.86,4.71-9.27,6a52.36,52.36,0,0,1-32.2-1.39c-2,6.11-5.45,11.55-9.23,16.7,3,3.36,7.73,3.64,11.81,2.44a24.31,24.31,0,0,0,1.23,17c6.38-1.51,12.36-5.54,15.41-11.45,3.09,4.56,7.64,9.12,13.24,9.82,4.84-4,5.58-11,5.13-16.85a27.3,27.3,0,0,0,21,14.11c1.7-3.43,3.19-7.09,3.22-11,.22-5.81-2.4-11.29-5.87-15.79,6.88,5,15.83,5.13,23.88,3.72.44-8.09-5.73-14.23-11.51-18.93,9-.75,18-5.62,22-14-6-5.88-14.85-7.08-22.9-6.49,9.74-2.82,16.58-11.88,18.26-21.66-9.46-4-20-1-28.35,4.2,4.32-8,13.29-12,17.38-20.12,6.14-11.15,7.66-24.42,6-36.91C-698.13-163.3-715.25-149.84-732.05-138.06Z" transform="translate(1173.86 315.06)"/><path class="cls-1" d="M-785.66-235.21l.59,2.84v0c-1.22.25-2.44.53-3.63.9a6.85,6.85,0,0,0,3,1.61,53.77,53.77,0,0,0,17.13.09,5.17,5.17,0,0,0,3.29-1.77c-1.26-.37-2.54-.65-3.84-.89l.74-2.79c3.32-4.94,6.93-9.84,9.08-15.44-.74-4.38-6.82-3.07-9.42-1.16-3.84,4.35-3.71,10.61-5.07,16l-.79,2.72.07,0a42.07,42.07,0,0,0-4.88,0l-.79-2.73c-1.16-4.84-1.4-10-3.87-14.45-1.43-2.72-4.88-3.28-7.64-3.24-1.83,0-3.54,1.86-2.75,3.7C-792.14-244.61-788.84-239.91-785.66-235.21Z" transform="translate(1173.86 315.06)"/><path class="cls-1" d="M-598.45-199.55c-11,10.75-22.6,20.84-34.32,30.77-2.35,4.22-3.3,9.17-5,13.69q16.09-12.87,32.6-25.25c10.31-7.77,20.76-15.84,33.12-20.08A114.73,114.73,0,0,1-598-175.09c-12.94,9.3-27.09,16.73-41.36,23.74-2.71,1.9-3.84,5.32-5.87,7.86a177.93,177.93,0,0,0,24.09-6.5c12.9-5.28,25.54-11.37,37.16-19.12,11.48-7.51,22.58-16,31.16-26.8,9.56-12.84,11.31-29.79,9.89-45.3-9.33,2.68-17.1,8.71-24.82,14.32A266.29,266.29,0,0,0-598.45-199.55Z" transform="translate(1173.86 315.06)"/><path class="cls-1" d="M-660-134c11.14-6.58,17-18.81,21.68-30.34a77.67,77.67,0,0,0-18.76,6.44c-12.93,5.43-24,14.2-35,22.81,2.85.7,5.91.92,8.5,2.42,1.25.63,2.44,1.56,3.91,1.65C-673-130.09-665.8-130.27-660-134Z" transform="translate(1173.86 315.06)"/><path class="cls-1" d="M-632.67-197.78a134.55,134.55,0,0,1-17.45,14.59c-2,9.47-7.28,17.79-13.73,24.88,6.32-3.26,13.18-5.41,19.11-9.4,16.24-10,30.31-23.12,42.72-37.48,8.76-10.64,17.45-21.87,21.93-35.07,5.82-16.47,3.74-34.44,0-51.13-17.39,15.87-33.13,33.63-45.82,53.51a371.34,371.34,0,0,0-23.37,40.48c-.78,3.56-.18,7.31-.66,10.94,10.84-14,21.9-27.82,32.87-41.72,5.15-6.29,11.5-11.47,18.11-16.15a99.31,99.31,0,0,1-13.54,25.64C-618.22-210.83-625.75-204.56-632.67-197.78Z" transform="translate(1173.86 315.06)"/><path class="cls-1" d="M-729.89-263.23h0s4.62,1.15,7.12,3.08c-.07.54-.14,1.08-.24,1.62-1,5.93-5.14,10.85-5.78,16.91-1.76,9.1,3.63,17.34,4.32,26.26a28.82,28.82,0,0,0,4.32-12.25c1-.66,2.44-1.56,3.36-2.28,3.29-3.6,8.23-1.28,11.95.3-3-4.83-6.76-9.67-12.42-11.43h-3.18a18.72,18.72,0,0,1,2.14-6.23,32.63,32.63,0,0,0,4.09-14.5c-2.59-1.3-5.24-2.46-7.93-3.51h0a32.35,32.35,0,0,1-4.75-2.63c-4.17-3.81-9.06-7-14.67-8.09-2.62-.42-5.08.68-7.22,2,3.28.82,6,2.83,8.56,5A25.8,25.8,0,0,0-729.89-263.23Z" transform="translate(1173.86 315.06)"/><path class="cls-1" d="M-782.36-253.71c.53,4.65,3.57,8.44,5.41,12.62,1.71-4.18,4.76-7.88,5.32-12.47C-773.25-257.59-780.49-257.55-782.36-253.71Z" transform="translate(1173.86 315.06)"/><path class="cls-1" d="M-784.77-265.75h5.57c0,2.43,0,4.87,0,7.31h4.43c0-2.44,0-4.89.05-7.32l5.63,0c0-1.27,0-2.54,0-3.8-1.89,0-3.78-.11-5.65-.18,0-2,0-4.08,0-6.12h-4.51c0,2,0,4,0,6.06-1.9,0-3.78.12-5.65.22C-784.81-268.3-784.79-267-784.77-265.75Z" transform="translate(1173.86 315.06)"/><path class="cls-1" d="M-749.21-233c3.84-1.55,8.15-3.16,10.45-6.85,1.4-3.07,1-6.7,0-9.84-3-8.14-10.25-14.52-11.24-23.42-2.22,2.79-5.08,5.61-5.25,9.39.82,6.69,4.91,12.16,8,17.9A11.13,11.13,0,0,1-749.21-233Z" transform="translate(1173.86 315.06)"/><path class="cls-1" d="M-763.62-212.32c4.42-3.65,9.54-8.33,9-14.64a24.65,24.65,0,0,0-5.43.2A51.16,51.16,0,0,1-763.62-212.32Z" transform="translate(1173.86 315.06)"/><path class="cls-1" d="M-665.49-53.68c-5.57-6.93-15.11-8.19-21.69-13.87-.83,2.56-3.88,2.13-6,2.66a38,38,0,0,1-13.58-.4c.67,2.11.93,4.52,2.55,6.2,6.74,7.34,16.51,12.08,26.55,12A14.82,14.82,0,0,0-665.49-53.68Z" transform="translate(1173.86 315.06)"/><path class="cls-1" d="M-714.65,30.39c3.86,7.43,11.17,12.13,18.17,16.27,4.95-9,4.85-19.7,2.32-29.38-3.36-12-9-23.37-15.62-33.91-1.36-.57-2.7-1.16-4-1.73C-710-4.29-703,9.75-705.64,24.7c-5-6.51-7-14.58-8.87-22.4a205.07,205.07,0,0,1-3.61-23.25c-1.9-1.39-3.75-2.82-5.57-4.3-.18,8.86.93,17.69,1.81,26.49C-720.67,11.16-719.44,21.45-714.65,30.39Z" transform="translate(1173.86 315.06)"/><path class="cls-1" d="M-689.48,77.9c5.87-1.34,10.69-5.36,15.09-9.27,4-3.72,7.74-7.86,10-12.85,1.78-3.84-.13-9.09-4.19-10.52a10.1,10.1,0,0,0-5.86.14c-7.68,3-13.87,8.85-19.27,14.91-2.9,3.81-7,8.62-4.56,13.68C-697,77.55-692.86,78.83-689.48,77.9Z" transform="translate(1173.86 315.06)"/><path class="cls-1" d="M-695.87-18.15A17,17,0,0,0-697.34-24c-3.42-6.55-8.4-12.15-13.76-17.18-1.44-1.53-3.71-1.46-5.58-2-3.78-.75-7.06-2.85-10.4-4.62a16.83,16.83,0,0,0,3.23,17.3C-717-22.56-706.57-17-695.87-18.15Z" transform="translate(1173.86 315.06)"/><path class="cls-1" d="M-659.91,6.64c-6.74-12.17-15.81-22.87-25.59-32.69a42.55,42.55,0,0,1-9.92-1.51c.93,1.89,1.77,3.91,3.42,5.34,9.23,8.58,17.61,18.33,23.32,29.65a25.23,25.23,0,0,1,2.78,11.08c-12.26-8.2-20.16-21.22-27.52-33.67a64,64,0,0,1-9.5.39c9,10.69,14.23,23.92,22,35.45,7.59,9,18.09,15.2,29.08,19.15C-651.16,28.26-654.36,16.73-659.91,6.64Z" transform="translate(1173.86 315.06)"/><path class="cls-1" d="M-732.48-1.34c.6,9.26,2.48,19.52-2.21,28.06-4-8.13-4.86-17.45-4.17-26.38-1.37-2.83-4.12-4.92-5.75-7.66,1,15.62,2.18,31.41,6.43,46.55a32,32,0,0,0,3.9,8.44,22.39,22.39,0,0,0,6.38-12.16c3.24-14.79,1.95-30.08.82-45C-728.7-6.69-730.73-4.11-732.48-1.34Z" transform="translate(1173.86 315.06)"/><path class="cls-1" d="M-648.68-103.74c-8.87-3.88-18.92-1.83-27.6,1.52a29.94,29.94,0,0,1-7.42,10.8c7.44,4.69,16.45,6.08,25.12,6.19,8.19,0,15.9-3.65,22.36-8.47A24.35,24.35,0,0,0-648.68-103.74Z" transform="translate(1173.86 315.06)"/><path class="cls-1" d="M-646.24-64.53c-1.58-4.22-3.6-8.4-6.83-11.6-3.87-4-9.22-6-14.58-7.08-8.5-2.33-17.41-2.33-26.11-1.44,3.77,5,5.68,11.47,11,15.16a38.52,38.52,0,0,0,15.24,7.22C-660.51-60.26-652.5-60.44-646.24-64.53Z" transform="translate(1173.86 315.06)"/><path class="cls-1" d="M-678.67-107.83a55.82,55.82,0,0,0,19-3.11c6.67-2.14,12.55-7.54,14.16-14.5-5.4-2.79-11.71-4-17.66-2.46a47.38,47.38,0,0,1-18.7.9c-1.28,6.29-5.09,11.64-9.47,16.19C-687.12-109.76-683.07-107.91-678.67-107.83Z" transform="translate(1173.86 315.06)"/><path class="cls-1" d="M-705.24-53.89a29,29,0,0,1-4,10.5c2.89,3.83,6,7.67,10.16,10.22a23.21,23.21,0,0,0,16.45,3.31c.68-3.53,1.1-7.53-1.13-10.63C-688.81-47.66-697.37-50.9-705.24-53.89Z" transform="translate(1173.86 315.06)"/></svg>