<svg id="Режим_изоляции" data-name="Режим изоляции" xmlns="http://www.w3.org/2000/svg" viewBox="0 0 53.62 53.58"><defs><style>.cls-1{fill:#eaeaea;}</style></defs><title>psb</title><path class="cls-1" d="M236.32,159.41a13,13,0,0,0-13-13H204.85a13,13,0,0,0-12.56,9.55h22.28c8.57,0,12.21,4,12.21,13.34V190.4a13.08,13.08,0,0,0,9.55-12.55Z" transform="translate(-182.71 -146.36)"/><path class="cls-1" d="M182.71,186.9a13,13,0,0,0,13,13h18.43a13,13,0,0,0,12.56-9.55H204.46c-8.57,0-12.21-4-12.21-13.34V155.91a13.08,13.08,0,0,0-9.55,12.56Z" transform="translate(-182.71 -146.36)"/><path class="cls-1" d="M220,167v-.06a3.31,3.31,0,0,0,2.41-3.45c0-2.54-2.07-3.71-5-3.71h-4.94v6.09h-2.91c-3.91,0-4.71,2.74-4.71,4.23,0,2.12,1.23,3.06,3.49,4.19,1.38.69,3,1.11,3,2.68,0,.83-.76,1.82-2.41,1.82h-3.06a4.82,4.82,0,0,0,.65-2.4c0-1-.34-4.88-5.78-4.88h-4.44v15.07h3V180l1.22,1.23h8.28c3.86,0,5.7-2,5.7-4.37a4.67,4.67,0,0,0-.42-2.07h3.1c4.79,0,5.9-2.37,5.9-4.24A3.49,3.49,0,0,0,220,167Zm-19.23,11.8h-1.42v-4.93h1.42a2.29,2.29,0,0,1,2.57,2.37A2.42,2.42,0,0,1,200.81,178.77Zm11.72-9.35v3.66a21.47,21.47,0,0,0-2.45-1.17c-1-.42-2-1-2-2.17,0-.61.38-1.53,2.22-1.53h3.41Zm3-7.31h1.38c2.34,0,2.45,1.43,2.45,1.87,0,.65-.34,1.86-2.34,1.86h-1.49Zm1.72,10.3h-1.72v-4.19h1.72c2.11,0,2.68,1,2.68,2.09S219.19,172.41,217.28,172.41Z" transform="translate(-182.71 -146.36)"/></svg>