<svg id="Слой_1" data-name="Слой 1" xmlns="http://www.w3.org/2000/svg" viewBox="0 0 32 32"><defs><style>.cls-1{fill:#eaeaea;}</style></defs><title>qiwi</title><path class="cls-1" d="M31.91,31.47c.3.36-.16.72-.5.43a14,14,0,0,0-9.05-3.84,36,36,0,0,0-4.53.21l-.94.08-.42,0a16.09,16.09,0,0,1-1.67.09A15.4,15.4,0,0,1,7.37,26.6,13.94,13.94,0,0,1,2,21.44a13.78,13.78,0,0,1-2-7.15A14,14,0,0,1,2,7.1,14.1,14.1,0,0,1,7.3,1.89,14.83,14.83,0,0,1,14.61,0a15.59,15.59,0,0,1,7.52,1.87A14,14,0,0,1,27.56,7a13.78,13.78,0,0,1,2,7.17,14.27,14.27,0,0,1-.3,2.9c0,.14-.06.3-.11.5s-.08.31-.12.46h0a16.12,16.12,0,0,1-1.66,3.44c-.1.16-.15,0-.16,0a6.51,6.51,0,0,0-3-4.89L24,16.52a7.61,7.61,0,0,0-.91-.46,9.64,9.64,0,0,0-1.34-.45c-.29-.08-1,0-.71-.27a14.26,14.26,0,0,1,3.15,0h.09c0-.33,0-.67,0-1a8.92,8.92,0,0,0-2.84-6.76,9.42,9.42,0,0,0-6.83-2.73A9.15,9.15,0,0,0,7.9,7.55a9,9,0,0,0-2.74,6.7A8.85,8.85,0,0,0,8,20.92a9.27,9.27,0,0,0,6.73,2.73h.38v-.09c-.15-1.87-.18-3.43.21-2.8l.42.63a13.55,13.55,0,0,0,1.55,1.88l.08.08A10.62,10.62,0,0,0,23,26.1l.13,0,1,.24a13.71,13.71,0,0,1,7.8,5.1M25.44,20.15c-.29-.08-.51,0-.61.17a1.49,1.49,0,0,0,.28,1.34c.33.5.61.75.83.75a.27.27,0,0,0,.2-.09,1,1,0,0,0,.11-.79,1.88,1.88,0,0,0-.82-1.38m-3.26,2.33a.88.88,0,0,0-.69.28,1.33,1.33,0,0,0,.38,1.78,1.59,1.59,0,0,0,1,.35,1.08,1.08,0,0,0,.88-.38c.35-.45.15-1.09-.51-1.62a1.7,1.7,0,0,0-1.06-.41"/></svg>