<svg id="Слой_1" data-name="Слой 1" xmlns="http://www.w3.org/2000/svg" viewBox="0 0 28 28"><defs>
    <style>.cls-1{fill:#eaeaea;}</style></defs><title>raiffaizen</title><path class="cls-1" d="M0,0V28H28V0ZM19.23,9.09V12.4l-1.71,1.72L26,22.64l-3.44,3.49-8.52-8.55L5.55,26.13,2.1,22.64l8.52-8.52L8.91,12.4V9.09L7.86,8l0,2.66L6.71,11.89,2.39,7.71l-1.06,1c.17-4.49,3.75-8,7.12-5.6l4.41,4.45-1,.92,2.22,2.22,2.22-2.22-1-.92,4.41-4.45C23.06.7,26.63,4.18,26.8,8.68l-1.06-1-4.32,4.18-1.19-1.24,0-2.66Z" transform="translate(0 0)"/></svg>