<svg id="Слой_1" data-name="Слой 1" xmlns="http://www.w3.org/2000/svg" viewBox="0 0 35.01 10"><defs><style>.cls-1{fill:#eaeaea;}</style></defs><title>rnko</title><path class="cls-1" d="M34.7,7a4.33,4.33,0,0,1-.9,1.61,3.85,3.85,0,0,1-1.47,1,5.48,5.48,0,0,1-2,.35,6,6,0,0,1-2-.3,3.44,3.44,0,0,1-1.41-.9,3.85,3.85,0,0,1-.85-1.54,7.68,7.68,0,0,1-.28-2.21A6.86,6.86,0,0,1,26.08,3,4.29,4.29,0,0,1,27,1.36a3.92,3.92,0,0,1,1.47-1,5.48,5.48,0,0,1,2-.35,6,6,0,0,1,2,.29,3.45,3.45,0,0,1,1.42.89,3.9,3.9,0,0,1,.86,1.53A7.28,7.28,0,0,1,35,4.89,7.08,7.08,0,0,1,34.7,7Zm-1.9-3.43a3,3,0,0,0-.41-1.07,2,2,0,0,0-.77-.69,2.68,2.68,0,0,0-1.21-.24,2.49,2.49,0,0,0-1.22.27,2.24,2.24,0,0,0-.79.73A3,3,0,0,0,28,3.68,6.4,6.4,0,0,0,27.85,5,7.64,7.64,0,0,0,28,6.39a3,3,0,0,0,.41,1.08,1.86,1.86,0,0,0,.77.68,2.76,2.76,0,0,0,1.21.23,2.52,2.52,0,0,0,1.22-.27,2.17,2.17,0,0,0,.79-.73A3.07,3.07,0,0,0,32.8,6.3,6.61,6.61,0,0,0,32.93,5,7.35,7.35,0,0,0,32.81,3.61ZM25,9.8a1.58,1.58,0,0,1-.31.06l-.51,0-.52,0a1.49,1.49,0,0,1-.32-.06.4.4,0,0,1-.18-.11A.46.46,0,0,1,23,9.51l-.78-2.15a4.84,4.84,0,0,0-.35-.79,2.07,2.07,0,0,0-.4-.52,1.27,1.27,0,0,0-.5-.28,2.19,2.19,0,0,0-.62-.08h-.44V9.56a.21.21,0,0,1,0,.14.36.36,0,0,1-.16.1,1.32,1.32,0,0,1-.3.06l-.48,0-.48,0a1.33,1.33,0,0,1-.31-.06A.39.39,0,0,1,18,9.7a.2.2,0,0,1,0-.14V.43a.2.2,0,0,1,0-.14A.37.37,0,0,1,18.15.2a1.48,1.48,0,0,1,.31-.06l.48,0,.48,0a1.48,1.48,0,0,1,.3.06.34.34,0,0,1,.16.09.21.21,0,0,1,0,.14V4.06h.44A1.79,1.79,0,0,0,21,4a1.29,1.29,0,0,0,.46-.28,2,2,0,0,0,.38-.5,5.09,5.09,0,0,0,.33-.77L22.78.49a.68.68,0,0,1,.09-.18A.35.35,0,0,1,23,.2a1.41,1.41,0,0,1,.31-.06l.52,0,.49,0,.3.05a.27.27,0,0,1,.15.09.24.24,0,0,1,0,.14,1.1,1.1,0,0,1,0,.24c0,.09-.06.22-.12.37L24,2.75a6.88,6.88,0,0,1-.36.81,3.29,3.29,0,0,1-.38.57,2.09,2.09,0,0,1-.42.38,2.25,2.25,0,0,1-.49.25h0a3.42,3.42,0,0,1,.55.29,2.23,2.23,0,0,1,.46.41,3.36,3.36,0,0,1,.41.6,7.66,7.66,0,0,1,.4.88L25,9a2.87,2.87,0,0,1,.14.42,1,1,0,0,1,0,.19.21.21,0,0,1,0,.14A.33.33,0,0,1,25,9.8Zm-9.35,0a1.59,1.59,0,0,1-.3.06l-.48,0-.49,0a1.51,1.51,0,0,1-.3-.06.34.34,0,0,1-.16-.1.2.2,0,0,1,0-.13V5.66H10.19v3.9a.22.22,0,0,1,0,.13.32.32,0,0,1-.16.1,1.6,1.6,0,0,1-.3.06l-.48,0-.48,0a1.6,1.6,0,0,1-.31-.06.35.35,0,0,1-.16-.1.21.21,0,0,1,0-.13V.44a.21.21,0,0,1,0-.13.34.34,0,0,1,.16-.1A1.6,1.6,0,0,1,8.72.15l.48,0,.48,0a1.6,1.6,0,0,1,.3.06.31.31,0,0,1,.16.1.21.21,0,0,1,0,.13V4h3.65V.44a.2.2,0,0,1,0-.13A.33.33,0,0,1,14,.21a1.51,1.51,0,0,1,.3-.06l.49,0,.48,0a1.59,1.59,0,0,1,.3.06.33.33,0,0,1,.16.1.2.2,0,0,1,0,.13V9.56a.2.2,0,0,1,0,.13A.34.34,0,0,1,15.6,9.79ZM5.67,5.6a3.29,3.29,0,0,1-1.2.65,5.59,5.59,0,0,1-1.68.22H2V9.56a.2.2,0,0,1,0,.13.34.34,0,0,1-.16.1,1.59,1.59,0,0,1-.3.06L1,9.87l-.48,0a1.6,1.6,0,0,1-.3-.06A.32.32,0,0,1,0,9.69a.22.22,0,0,1,0-.13V.87A.69.69,0,0,1,.18.35.68.68,0,0,1,.66.17H3l.66,0a7.22,7.22,0,0,1,.75.11,3.33,3.33,0,0,1,.89.32A2.64,2.64,0,0,1,6,1.21,2.46,2.46,0,0,1,6.5,2a3.22,3.22,0,0,1,.17,1.06,3.78,3.78,0,0,1-.26,1.44A2.78,2.78,0,0,1,5.67,5.6ZM4.42,2.41A1.25,1.25,0,0,0,4,1.92a1.5,1.5,0,0,0-.55-.2,4.32,4.32,0,0,0-.6,0H2V5h.89a2.16,2.16,0,0,0,.8-.13,1.36,1.36,0,0,0,.52-.35,1.54,1.54,0,0,0,.31-.54,2.19,2.19,0,0,0,.11-.69A1.73,1.73,0,0,0,4.42,2.41Z" transform="translate(0.01)"/></svg>