<svg id="Слой_1" data-name="Слой 1" xmlns="http://www.w3.org/2000/svg" viewBox="0 0 26 25"><defs><style>.cls-1{fill:#eaeaea;}</style></defs><title>sberbank</title><path class="cls-1" d="M26,12A13,13,0,1,1,0,12c0-.29,0-.58,0-.87L7.9,15.65l16.67-9.6A13,13,0,0,1,26,12Zm-18.1.39L.57,8.16A12.88,12.88,0,0,0,.22,9.6L7.9,14l16-9.18A13.08,13.08,0,0,0,23,3.69ZM22,2.62a13,13,0,0,0-1.14-1L7.9,9.11,1.71,5.55a12.85,12.85,0,0,0-.63,1.27L7.9,10.74ZM7.9,7.47,19.56.76A13,13,0,0,0,18,0L7.9,5.84,3.38,3.24a13.26,13.26,0,0,0-.91,1.11Z"/></svg>