<svg id="Слой_1" data-name="Слой 1" xmlns="http://www.w3.org/2000/svg" viewBox="0 0 34 35.01"><defs><style>.cls-1{fill:#eaeaea;}</style></defs><title>standart</title><path class="cls-1" d="M34,18.34a17.63,17.63,0,0,1-.12,2v0a22.73,22.73,0,0,0-5.89-4,10.58,10.58,0,0,0,3.8-.21,1.84,1.84,0,0,1-1.49.84s3.19.89,3.7,1.1C34,18.21,34,18.26,34,18.34ZM31.06,11.5A1.63,1.63,0,0,1,29.93,13a1.74,1.74,0,0,1-1.22-.12c-.64.69-.76.24-.79,0s-.37-.06-.61,0-.33-.24-.33-.24a1.78,1.78,0,0,0-1.67.53,1.81,1.81,0,0,1,1.56,1.08c0,.28.5.09.5.09a.47.47,0,0,1,.23-.18c.18-.09.23,0,.18.18s-.09.41-.09.41l.51.32c-.19,1.22-.73,1.17-1,1a15.91,15.91,0,0,0-4.89-1,3.75,3.75,0,0,1,.62-.62c-8,0-9.39,1-9.81,1.47a1,1,0,0,0,0,.9c-1,.18-3.38.78-4.31,1.63a5.71,5.71,0,0,0-1.23,3.39c0,.15.14.14.2.06a3.44,3.44,0,0,1,1.09-.79,12.29,12.29,0,0,1,4-.59,2,2,0,0,1,1.46.63c.32.31-.23.36-.5.13a1.37,1.37,0,0,0-.9-.3,1.56,1.56,0,0,0-.84.25,1.4,1.4,0,0,1-.68.45,1.62,1.62,0,0,1-1.19-.34,1.39,1.39,0,0,0,1.64.7,2.44,2.44,0,0,1,.87-.23,1.3,1.3,0,0,1,1.05.41,15.16,15.16,0,0,0-3.2.67,11.09,11.09,0,0,1-1.78.23,2.48,2.48,0,0,0,2.1.72c.64,0,2.69-.15,3.93,0a2.75,2.75,0,0,1,2.78,2.61,3,3,0,0,1-1,2.29,3.3,3.3,0,0,0,1.87-1.44A5.25,5.25,0,0,1,16.28,33a8.46,8.46,0,0,1-7,.27,11.88,11.88,0,0,1-3.91-2.64c6.17.49,9.18-1.19,9.18-1.19a25.29,25.29,0,0,1-12-2.16A16.3,16.3,0,0,1,.41,22.09a21.26,21.26,0,0,0,8.7,4A20.92,20.92,0,0,1,0,17.49a16.32,16.32,0,0,1,1-4.91v0C2.87,17.4,4.9,18.85,4.9,18.85A19.53,19.53,0,0,1,3.09,8.68a16.71,16.71,0,0,1,2.64-2.9l0,0A15.73,15.73,0,0,0,5.9,12.9c0-3.42,1.95-7.49,3.5-9.57a16.57,16.57,0,0,1,3-1.14h0a13.57,13.57,0,0,0-2,3.46A24.13,24.13,0,0,1,18.83,1.1C19.56.92,21.67.16,22.26,0s.81.21.77.54a10.52,10.52,0,0,1-.23,1.13,4.7,4.7,0,0,1,2.31,1.17,2,2,0,0,1,0-.57c2.23,2,2.83,2.88,2.9,4.65s.85,2,1.31,2.28a17.25,17.25,0,0,1,1.95,1.17c.27.23.15.48,0,.66A.64.64,0,0,0,31.06,11.5Zm-16.75.33c-.09.21,0,.24.3.06a10.08,10.08,0,0,1,1.61-.72s-.46,1.57-.61,2.43c-.12.71.48.66.85.57S18.39,14,18.66,14c0,0-1.43-.33-1.58-.9a6.73,6.73,0,0,1,.55-2.7c.06-.18,0-.45-.34-.33a9.36,9.36,0,0,0-.94.33,23.08,23.08,0,0,1,3.41-5.59l0-.09A21.74,21.74,0,0,0,14.31,11.83ZM21.5,1.45a6,6,0,0,0-2,2c-.09.15,0,.38.35.25A6.74,6.74,0,0,1,21,3.4c.21,0,.21-.18.06-.24s-.19-.12-.12-.36a5.13,5.13,0,0,1,.82-1.32C21.83,1.38,21.74,1.3,21.5,1.45Zm5.42,4.72a0,0,0,0,0-.09,0c-.15,1.18-.59,1.08-.79,1A2.7,2.7,0,0,0,25.12,7c-.2,0-1.14-.12-.64.27A7.26,7.26,0,0,1,26,9.16a2.14,2.14,0,0,0-.24-1.23c-.12-.21,0-.27.18-.24a1.7,1.7,0,0,1,.52.24c.27.15.45.12.52-.24A7,7,0,0,0,26.92,6.16ZM.4,22.08h0Zm22.43,5.3a12.16,12.16,0,0,1-.54,6.9h0A17.57,17.57,0,0,1,19,35C23,33.11,22.84,27.38,22.84,27.38Zm-7.4-8.1c-.58-.18-.55-.36-.42-.72a8.62,8.62,0,0,1,.67-1.2,6.05,6.05,0,0,0-1.24.39.72.72,0,0,1-.7,0c-.61-.61.67-1.8.67-1.8,0,.42.18.63.82.54s2.77-.27,3.26-.27a22.19,22.19,0,0,0-2.71,2.37c-.39.6.25.48.55.55A16,16,0,0,1,21,20.3a11.14,11.14,0,0,1,3.41,2.61,16.82,16.82,0,0,0,1.4,1.53A7,7,0,0,1,24,23.9s.66.75,1.11,1.28c1.1,1.31,3.07,2.82,3.79,5.18h0a16.56,16.56,0,0,1-2.71,2.12,6.35,6.35,0,0,0-.4-5.36,13.53,13.53,0,0,0-5-5.55A23.22,23.22,0,0,0,15.43,19.28Zm17.43,5.1A16.5,16.5,0,0,1,31.54,27c-1.92-5.34-7.31-7.46-7.31-7.46C28,20.45,31.1,23,32.86,24.38Z" transform="translate(0 0)"/></svg>