<svg id="Layer_1" data-name="Layer 1" xmlns="http://www.w3.org/2000/svg" viewBox="0 0 77.34 69.15"><defs><style>.cls-1{fill:#eaeaea;stroke:#eaeaea;stroke-miterlimit:10;stroke-width:0.5px;}</style></defs><title>tinkoff</title><path class="cls-1" d="M185.08,271.31a.24.24,0,0,0-.26.23.24.24,0,0,0,.23.26.24.24,0,1,0,0-.49" transform="translate(-150.72 -224.81)"/><path class="cls-1" d="M201.36,287.68l-1.38-.53.38-1.43.42-1.56a32.6,32.6,0,0,1-5.9,2.33c-1,.28-1.72.41-1.72.41V288a24.84,24.84,0,0,1-3.71.32h-.11a24.79,24.79,0,0,1-3.71-.32V286.9s-.74-.13-1.72-.41a32.53,32.53,0,0,1-5.9-2.33l.41,1.56.39,1.43-1.39.53-1.54.57a40.32,40.32,0,0,0,6.44,2.7l-.53,1.44a19.89,19.89,0,0,0,7.56,1.3h.06a19.88,19.88,0,0,0,7.56-1.3l-.53-1.44a39.94,39.94,0,0,0,6.44-2.7Zm-23.83.67,2.27-.75-.67-2.19a29.72,29.72,0,0,0,4.55,1.82l-1.1,3a27.46,27.46,0,0,1-5.05-1.88m11.87,4.59a25.24,25.24,0,0,1-6.54-.92l1.35-3.65a21.89,21.89,0,0,0,5.14.66h.11a21.94,21.94,0,0,0,5.14-.66l1.35,3.65a25.21,25.21,0,0,1-6.54.92m6.8-2.71-1.1-3a29.71,29.71,0,0,0,4.55-1.82l-.67,2.19,2.27.75a27.35,27.35,0,0,1-5.06,1.88" transform="translate(-150.72 -224.81)"/><path class="cls-1" d="M189.39,230.69a10.38,10.38,0,0,1,6.31,1.93,12.53,12.53,0,0,1,1.63-4.19l-2.27.26-1.19-2.52-2.28,1.17-2.21-2.18-2.2,2.18-2.28-1.17-1.18,2.52-2.27-.26a12.51,12.51,0,0,1,1.63,4.19,10.39,10.39,0,0,1,6.3-1.93m-5.77-1.12.63.07.27-.57.79-1.69,1.47.76.57.29.45-.45,1.59-1.57L191,228l.46.45.57-.29,1.46-.76.8,1.69.27.57.63-.07.6-.07a14.28,14.28,0,0,0-.62,1.7,12.6,12.6,0,0,0-11.49,0,14.71,14.71,0,0,0-.62-1.7Z" transform="translate(-150.72 -224.81)"/><path class="cls-1" d="M222.4,260.19c3.64,0,4.86-3.7,4.91-3.86l.41-1.3-1.36,0h0a9.77,9.77,0,0,1-7.34-3.72l-.27-.34c-1.86-2.36-3.62-4.61-6.78-5.64a3.12,3.12,0,0,1,.4-.3,5.38,5.38,0,0,0,1.69-8.26l-1-1.25L212.4,237c0,.09-1.11,2.47-3.35,2.47h-.17l-.44,0a5.4,5.4,0,0,0-1.6-4.25,7.1,7.1,0,0,0-5.14-2.13,6.7,6.7,0,0,0-1.07.08l-1.53.3.94,1.25c.74,1,1.41,2.73.62,3.65a4.31,4.31,0,0,1-1.28.77c-1,.47-2.44,1.14-2.44,2.82,0,1.09.85,2.23,2.38,3.19,4.53,2.85,7.33,5.82,8.53,9.11,1.87,5-.57,7.93-2.94,9.45l-1.06.68.93.85a5.34,5.34,0,0,0,2.94,1.25c.32,0,.62,0,.91,0a9.31,9.31,0,0,0,2.74-.4,7,7,0,0,1-.77,1.09,6.69,6.69,0,0,1-5.41,2.32h-.89l-.07.89a4.21,4.21,0,0,0,1.49,3.24,3.46,3.46,0,0,0,.83.54,7.78,7.78,0,0,0-2.35,5.47,7.56,7.56,0,0,1-.75,3.27l-1,1.5,1.78,0q4.4,0,6.74-2.41a7.63,7.63,0,0,0,1.76-3,4.76,4.76,0,0,0,2,1,4.64,4.64,0,0,0,1.07.12,7,7,0,0,0,1.6-.19l1.13-.3-.5-1.06a7.54,7.54,0,0,1,0-5.24,17.22,17.22,0,0,0,.77-3.4,6.24,6.24,0,0,0,2.91.68,4.81,4.81,0,0,0,4.1-2.19l.55-1-1-.42c-3.35-1.39-4.09-5.12-4.23-7.14a6.19,6.19,0,0,0,1,.12Zm2.65,7.91a3.79,3.79,0,0,1-3.23,1.7h0a4.55,4.55,0,0,1-3.79-1.66,14.15,14.15,0,0,1-.82,5,8.49,8.49,0,0,0,0,6,5.81,5.81,0,0,1-1.36.17,3.36,3.36,0,0,1-.84-.1,3.92,3.92,0,0,1-2.82-2.59s.21,6.93-7.87,6.93h-.06a7.87,7.87,0,0,0,.92-3.75c.38-5.14,3.87-5.85,3.87-5.85a6.18,6.18,0,0,1-2.66-1,3.28,3.28,0,0,1-1.17-2.46,7.63,7.63,0,0,0,6.12-2.65,7.8,7.8,0,0,0,1.79-3.69,7,7,0,0,1-4.48,1.39c-.26,0-.54,0-.82,0a4.33,4.33,0,0,1-2.36-1c3.08-2,5.23-5.42,3.32-10.6-1.53-4.16-5.22-7.26-8.93-9.59-1.23-.77-1.92-1.63-1.92-2.37,0-1.74,2.47-1.79,3.48-3,1.17-1.36.44-3.55-.58-4.88a4.86,4.86,0,0,1,.88-.07,6.1,6.1,0,0,1,4.43,1.84,4.35,4.35,0,0,1,1.18,4.36l.54.11a6.25,6.25,0,0,0,1,.1h.22c2.93,0,4.24-3.06,4.24-3.06s3.11,3.83-1.47,6.83c-.79.51-1.14,1-1,1.5l.07.33.33.06c3.32.9,5,3.19,7.06,5.8a10.75,10.75,0,0,0,8.08,4.09h.06s-1,3.18-4,3.18h-.14a3.88,3.88,0,0,1-2.06-.57s-.53,7.22,4.86,9.45" transform="translate(-150.72 -224.81)"/><path class="cls-1" d="M216,245.77a9,9,0,0,1,2.84,2.55,5.35,5.35,0,0,0,2.34,2,3.48,3.48,0,0,0,1.13.18,4.08,4.08,0,0,0,3.62-2.22l.58-1.29-1.41-.08a6.72,6.72,0,0,1-3.89-2.23,4,4,0,0,0-2.91-1.29,4.57,4.57,0,0,0-2.4.73l-1.29.91Zm2.31-1.42a3,3,0,0,1,2.21,1,7.71,7.71,0,0,0,4.53,2.51,3.13,3.13,0,0,1-2.74,1.65,2.48,2.48,0,0,1-.83-.14c-1.61-.54-2.19-3-5-4.47a3.51,3.51,0,0,1,1.84-.56" transform="translate(-150.72 -224.81)"/><path class="cls-1" d="M216.64,258.62v0c-.82-6.59-5.6-11.35-10.93-14.24-.49-.27-.95-.49-1.39-.7a7.68,7.68,0,0,0,6.25-1.47s-3.08,2.27-9.4.21c1.75,1.13,5.14,2.74,8.25,5.33,7.75,6.81,2.21,13.46,2.21,13.46a8.15,8.15,0,0,0,2.08-8.57,15.93,15.93,0,0,1,2.26,9.06c-.21,5.24-3.09,9.76-6.12,13.4a9,9,0,0,0-1.78,3.94,12.16,12.16,0,0,1,2.27-3.88c3.25-3.8,6-7.75,6.38-13.43.34,1,1.72,3.9,3.91,5,0,0-2.76-1.66-4-8.13" transform="translate(-150.72 -224.81)"/><path class="cls-1" d="M175.32,283a7.79,7.79,0,0,1-.75-3.27,7.78,7.78,0,0,0-2.35-5.47,3.43,3.43,0,0,0,.83-.54,4.19,4.19,0,0,0,1.49-3.24l-.06-.89h-.9a6.69,6.69,0,0,1-5.41-2.32,7.33,7.33,0,0,1-.77-1.09,9.3,9.3,0,0,0,2.73.4c.29,0,.59,0,.91,0a5.35,5.35,0,0,0,2.94-1.25l.93-.85-1.06-.68c-2.37-1.52-4.8-4.4-2.94-9.44,1.21-3.28,4-6.26,8.54-9.11,1.53-1,2.37-2.11,2.37-3.19,0-1.68-1.4-2.34-2.43-2.82a4.28,4.28,0,0,1-1.28-.77c-.8-.92-.13-2.69.62-3.65l.95-1.24-1.54-.3a6.49,6.49,0,0,0-1.06-.08,7.09,7.09,0,0,0-5.13,2.13,5.41,5.41,0,0,0-1.61,4.25l-.44,0h-.16c-2.25,0-3.31-2.38-3.35-2.47l-.63-1.49-1,1.25a5.39,5.39,0,0,0,1.7,8.26,3,3,0,0,1,.4.3c-3.16,1-4.92,3.28-6.78,5.64l-.27.34a9.77,9.77,0,0,1-7.35,3.72l-1.37,0,.42,1.3c0,.16,1.26,3.86,4.9,3.86h.18a6.43,6.43,0,0,0,1-.12c-.15,2-.89,5.75-4.24,7.14l-1,.42.55,1a4.81,4.81,0,0,0,4.11,2.19,6.25,6.25,0,0,0,2.9-.68,17.17,17.17,0,0,0,.77,3.4,7.54,7.54,0,0,1,0,5.24l-.5,1.06,1.14.3a7,7,0,0,0,1.6.19,4.59,4.59,0,0,0,1.07-.12,4.75,4.75,0,0,0,2-1,7.63,7.63,0,0,0,1.75,3q2.34,2.41,6.74,2.41l1.78,0Zm-.86.55c-8.08,0-7.87-6.93-7.87-6.93a3.92,3.92,0,0,1-2.82,2.59,3.31,3.31,0,0,1-.84.1,5.77,5.77,0,0,1-1.35-.17,8.51,8.51,0,0,0,0-6,14.18,14.18,0,0,1-.81-5A4.54,4.54,0,0,1,157,269.8h0a3.8,3.8,0,0,1-3.23-1.7c5.38-2.24,4.86-9.45,4.86-9.45a3.88,3.88,0,0,1-2.06.57h-.14c-3,0-4-3.18-4-3.18h.06a10.74,10.74,0,0,0,8.07-4.09c2.05-2.61,3.74-4.9,7.06-5.8l.33-.06.07-.33c.09-.51-.26-1-1-1.5-4.59-3-1.47-6.83-1.47-6.83s1.3,3.06,4.24,3.06h.21a6.54,6.54,0,0,0,1-.1l.54-.11a4.35,4.35,0,0,1,1.18-4.36,6.1,6.1,0,0,1,4.43-1.84,4.84,4.84,0,0,1,.88.07c-1,1.32-1.74,3.52-.57,4.88,1,1.17,3.48,1.22,3.48,3,0,.74-.69,1.59-1.92,2.37-3.71,2.34-7.4,5.44-8.93,9.59-1.91,5.18.25,8.63,3.33,10.6a4.35,4.35,0,0,1-2.37,1c-.29,0-.56,0-.83,0a6.94,6.94,0,0,1-4.48-1.39,7.85,7.85,0,0,0,1.78,3.69,7.66,7.66,0,0,0,6.13,2.65,3.28,3.28,0,0,1-1.17,2.46,6.19,6.19,0,0,1-2.67,1s3.48.71,3.87,5.85a7.92,7.92,0,0,0,.91,3.75Z" transform="translate(-150.72 -224.81)"/><path class="cls-1" d="M156.47,250.49a3.49,3.49,0,0,0,1.13-.18,5.35,5.35,0,0,0,2.34-2,9,9,0,0,1,2.84-2.55l1.4-.75-1.3-.91a4.55,4.55,0,0,0-2.4-.73,4,4,0,0,0-2.91,1.29,6.74,6.74,0,0,1-3.89,2.23l-1.41.08.58,1.29a4.08,4.08,0,0,0,3.62,2.22m1.79-5.13a3,3,0,0,1,2.22-1,3.52,3.52,0,0,1,1.84.56c-2.83,1.51-3.41,3.93-5,4.47a2.44,2.44,0,0,1-.82.14,3.13,3.13,0,0,1-2.73-1.65,7.7,7.7,0,0,0,4.52-2.51" transform="translate(-150.72 -224.81)"/><path class="cls-1" d="M162.82,261.75a15.87,15.87,0,0,1,2.26-9.06,8.15,8.15,0,0,0,2.08,8.57s-5.55-6.65,2.21-13.46c3.1-2.59,6.5-4.19,8.24-5.33-6.31,2.06-9.4-.21-9.4-.21a7.67,7.67,0,0,0,6.25,1.46c-.44.21-.9.44-1.39.7-5.33,2.89-10.11,7.65-10.93,14.24v-.05c-1.24,6.47-4,8.13-4,8.13,2.19-1.08,3.57-3.95,3.91-5,.37,5.69,3.14,9.63,6.39,13.43a12.26,12.26,0,0,1,2.28,3.88,9,9,0,0,0-1.79-3.94c-3-3.64-5.9-8.17-6.11-13.4" transform="translate(-150.72 -224.81)"/><path class="cls-1" d="M187.57,248.42v1.31a1.61,1.61,0,0,1,1.32-.44v1.88a2.81,2.81,0,0,1-.36,1.33h1.88a2.86,2.86,0,0,1-.36-1.33v-1.88a1.61,1.61,0,0,1,1.32.44v-1.31h-3.81Z" transform="translate(-150.72 -224.81)"/><path class="cls-1" d="M186.76,240.67a3,3,0,0,0,1,.57l.24.11v-1.23l-2.21-.93a2.22,2.22,0,0,0,1,1.49" transform="translate(-150.72 -224.81)"/><path class="cls-1" d="M192,240.67a2.22,2.22,0,0,0,1-1.49l-2.22.93v1.23l.23-.11a3,3,0,0,0,1-.57" transform="translate(-150.72 -224.81)"/><path class="cls-1" d="M196,235.66c0-1.87-3.14-3.55-6.61-3.55h0c-3.47,0-6.61,1.68-6.61,3.55l.07.46,1.39,8-1.39.81-3.6,2.1h0s-.81.42-1.19.67c-1.37,1-1.66,2.34-.87,2.91a2.71,2.71,0,0,1,2.77-2.32,3.6,3.6,0,0,1,2.87,1.56,7.36,7.36,0,0,1,.54.76c.21.34.42.64.62.93h-9.27a10,10,0,0,1,1.33,4.4v20.52c0,5,3.82,7.34,8,7.34,3.19,0,3.62-.15,5.39,1.61,1.75-1.76,2.18-1.61,5.38-1.61,4.13,0,8-2.37,8-7.34V255.9a10,10,0,0,1,1.33-4.4h-9.28c.21-.29.42-.59.62-.93a8.56,8.56,0,0,1,.54-.76,3.61,3.61,0,0,1,2.88-1.56,2.72,2.72,0,0,1,2.77,2.32c.8-.57.51-2-.87-2.91-.37-.26-1.18-.67-1.18-.67h0l-3.6-2.1-1.39-.81,1.39-8Zm-11.88.92,4.87,1.65v7.65L185.41,244Zm1,16.25a6.52,6.52,0,0,0,2.33,1.56,3,3,0,0,0,.13,2,2.92,2.92,0,0,0,1.59,1.45,3,3,0,0,0,2,2.49c-.6.61-1.19,1.18-1.43,1.41l-5.58-.09a1,1,0,0,1-.44-.41l0-.07.91.15h.06a.36.36,0,0,0,.36-.3.37.37,0,0,0-.3-.42l-1.12-.18,1.24-4.29-1.18-2.48-1.89,2-.12,4.46-1.27-.2a.36.36,0,0,0-.42.3.37.37,0,0,0,.3.42l.53.08c-.19.11-.32.19-.33.21l-.11.08,0,.13a2.93,2.93,0,0,0,1.14,3l0,.16a.72.72,0,0,0,.6.83h.12a.71.71,0,0,0,.69-.56,6,6,0,0,0,.71,0h.15l7.32,1.32.12-.08c.58-.41,2.81-2,3.54-2.57a3.1,3.1,0,0,0,.7.46,3,3,0,0,0,.68,3H177.4V255.9a9,9,0,0,0-.67-3.06Zm9.05,9.85c-.74.55-2.65,1.94-3.34,2.42l-6.65-1.2,0-.18a5.79,5.79,0,0,0,.18-1.37l5.59.09.11-.11c.08-.08,1.86-1.8,2.76-2.78a3.37,3.37,0,0,0,.84.75,3.24,3.24,0,0,0,.47,2.37M183,261.54a1.7,1.7,0,0,0,.64.68,7.74,7.74,0,0,1-.12,1.21,2.77,2.77,0,0,1-.07.27c0,.06,0,.1,0,.14a4.3,4.3,0,0,1-1.34-.21,2.17,2.17,0,0,1-1.12-2.21,2.64,2.64,0,0,1,1.24-.43.84.84,0,0,1,.81.56m-.69-1.33.11-4.29,1-1,.6,1.26-1.19,4.12Zm11.77,22.22-1,0,.79-2.47c.12-.34-.5-.78-.76-1.17a20.69,20.69,0,0,0,1.89,1c0,.08-.92,2.62-.92,2.62m2.49-2.8-.52,2.7c-.33,0-.68.07-1,.08l.55-2.59c.16-.77-1.91-1-2.93-2.53a3.22,3.22,0,0,1-2.39.73,12.14,12.14,0,0,1-2.25-.24,2.42,2.42,0,0,0-.38,0,.82.82,0,0,0-.77.41l-.15.25-2.82-.66-.7,1.16a.41.41,0,0,0,.05.52l.19.21a4,4,0,0,1-.72,1l-.42-.52a1.52,1.52,0,0,1,.07-1.68l1.12-1.89,2.39.34-.37-.85c-.5-1.12.26-2.54.34-3.36,0,.25-.26.3-.52.3s-.51,0-.69,0a.29.29,0,0,0-.16,0l-.65.39-.51-.45a.37.37,0,0,1,.07-.44l1.18-1.33-1.4-1.63,2,1,.6-.72c.16.16.09.58.09.58a3.19,3.19,0,0,1,2.41,3.17c0,.07,0,.14,0,.22l0,.07a1.43,1.43,0,0,0,.88.63l2.7.27h0a9.45,9.45,0,0,1,1.64-.35,2.51,2.51,0,0,1,1.36.41,1.22,1.22,0,0,1,.65-.21h.09c1.21,0,1.72,1.1,2.37,2,.49.69,1.14,1.72,1.14,1.72a1,1,0,0,1-.84.45,1.72,1.72,0,0,1-.35,0c-1.3-.24-1.49-2.91-2.23-3.12l-.12,0a.4.4,0,0,0-.34.21c.34.91.14,1.28.51,2a5,5,0,0,0,1,1.15s-.05.4-.11.69m-14.53-2.55.12.31c-.08.27-1,.66-1,.66l-.2-.44a1.47,1.47,0,0,1,.48-1.75l1.52-.92,1.61.34a1.43,1.43,0,0,0,.28.89l-1.69-.32-1,.7a.43.43,0,0,0-.09.54m14.78,5.1.46-2.42c0-.14.05-.31.07-.45a2,2,0,0,0,.42.13,2.55,2.55,0,0,0,.48,0,1.76,1.76,0,0,0,1.39-.69l.36-.41-.29-.45s-.67-1.06-1.16-1.76l-.28-.42a3.26,3.26,0,0,0-2.68-1.9h-.13a2.08,2.08,0,0,0-.59.12,3.22,3.22,0,0,0-1.38-.31,4.3,4.3,0,0,0-1.4.27l-.24.07-2.64-.26a.71.71,0,0,1-.27-.23h0l.57-.23c-.16-1.9-2-3.07-3-3.47a1.08,1.08,0,0,0-.3-.54l-.57-.54-.5.6-.25.3-3.7-1.52,2.4,3-.95,1.44a.52.52,0,0,0,0,.74l1,.68,1-.38h.1c0,.15-.11.76-.16.93l-1.76-.35-1.85,1a2.19,2.19,0,0,0-.73,2.65l.21.45.29.63.65-.27h0a2,2,0,0,0,.28,1.92l.39.49.52.66.58-.62a4.1,4.1,0,0,0,.89-1.31l.13-.4-.28-.31,0-.06.32-.52,2.3.54.52.12.28-.46.15-.25c0-.05,0-.06.14-.06a1.08,1.08,0,0,1,.25,0,13.07,13.07,0,0,0,2.38.25,4.63,4.63,0,0,0,1.59-.19l1.28,1.46-.76,2.34,0,.14a4,4,0,0,0-3,1.27c-1.23-1.22-2.09-1.34-5.39-1.34-3.94,0-6.61-2.31-6.61-6v-9h24v9a5.64,5.64,0,0,1-4.52,5.76m5.19-29.35a8.82,8.82,0,0,0-.67,3.06v6.73a2,2,0,0,1-1.58-1.82l0-.31-.3,0a2.14,2.14,0,0,1-1.36-.65,2.85,2.85,0,0,1-.69-1.82,2,2,0,0,0,.11,2.25,2.4,2.4,0,0,0,1.58.9,2.63,2.63,0,0,0,2.26,2.21v3.3h-4.15a2.31,2.31,0,0,1-1.07-3l.16-.36-.37-.14a2.36,2.36,0,0,1-1.47-2.93l.08-.3-.28-.13a3,3,0,0,1-1.46-3,1.84,1.84,0,0,0-.35,2.15c-.2.22-.46.5-.75.79a2.32,2.32,0,0,1-1.83-2.15v-.25l-.23-.09a2.32,2.32,0,0,1-1.4-1.16,2.27,2.27,0,0,1-.1-1.46,4.32,4.32,0,0,0,.6.09,6,6,0,0,0,.61,0h0a6,6,0,0,0,.61,0,5.89,5.89,0,0,0,3.63-1.86ZM195.59,246l1.64,1h0l.41.24a4.84,4.84,0,0,0-2.23,1.33l-.07.06c-.14.15-.27.3-.4.46l-.08.1c-.13.16-.25.33-.36.51l-.06.09c-.14.2-.27.42-.4.64a5,5,0,0,1-9.37,0c-.13-.22-.26-.43-.39-.63l-.08-.11-.35-.48-.09-.11c-.13-.16-.26-.31-.39-.45l-.07-.07a4.83,4.83,0,0,0-2.23-1.32l.42-.24h0l1.64-1,1.69-1,4.5,2.45h0l4.5-2.45Zm-2.22-2-3.59,1.89v-7.65l4.87-1.65Zm-4-6.6-5.34-2.11c.45-1.08,2.55-2,5.34-2s4.89.92,5.34,2Z" transform="translate(-150.72 -224.81)"/></svg>