<svg id="Слой_1" data-name="Слой 1" xmlns="http://www.w3.org/2000/svg" viewBox="0 0 52.99 8.99"><defs><style>.cls-1{fill:#eaeaea;}</style></defs><title>trust</title><path id="Фигура_13" data-name="Фигура 13" class="cls-1" d="M12.64,3.87V2h2.71c1.43,0,2.13.07,2.13.89s-.69,1-2,1Zm7.43,4.9V6.51a1.92,1.92,0,0,0-1.6-1.82,2.25,2.25,0,0,0,1.65-2.17c0-1.61-1.28-2.3-3.86-2.3h-6.1V8.77h2.49V5.63h2.87c1.47,0,2.09.45,2.09,1.9V8.77h2.46Zm-11.88,0H5.72V2H0V.23H8.19V2h0V8.77ZM24,4.82c0,1.66.76,2.43,2.6,2.43a2.85,2.85,0,0,0,2.13-.72,2.2,2.2,0,0,0,.48-1.7V.23h2.47V5c0,2.59-1.74,4-5.08,4s-5.07-1.37-5.07-4V.23H24V4.82Zm11.57,1V5.9c0,.95,1,1.48,2.89,1.48,1.47,0,2.27-.39,2.27-1.05s-.62-.8-2-.92l-1.76-.15c-2.53-.23-3.75-1-3.75-2.4C33.31,1.24,35.1,0,38.09,0,41.26,0,43,1.11,43,2.79v.07H40.56q-.16-1.28-2.43-1.28c-1.43,0-2.2.38-2.2,1s.63.72,2,.85l1.84.17c2.5.24,3.69,1,3.69,2.51C43.47,8,41.69,9,38.2,9s-5.12-1.11-5.12-3V5.82h2.54Zm11.74,3H44.89V2h0V.23H53V2H47.36V8.77Z" transform="translate(0 -0.01)"/></svg>