<svg id="_1" data-name="1" xmlns="http://www.w3.org/2000/svg" viewBox="0 0 98.84 98.84"><defs><style>.cls-1{fill:#eaeaea;fill-rule:evenodd;}</style></defs><title>unicredit</title><path class="cls-1" d="M-1403.49-211.46c.94-1.31,1.13-2.57.45-3l-8.4-5.42c-1-.64-1-3.53,2.7-4,12.23-1.46,24.87-2.42,36.87-1.87a49.23,49.23,0,0,0-34.05-13.68A49.51,49.51,0,0,0-1455.34-190a49.2,49.2,0,0,0,12.72,33Z" transform="translate(1455.34 239.41)"/><path class="cls-1" d="M-1361.93-212.46c2-2.18,3.57-6,1.49-8.39a8.84,8.84,0,0,1-2.67,6.14c-23.07,23.37-49.25,43.56-75.9,63.63-2.39,1.8-4.62,2.27-5.78,1.59-1,3.52,2.5,4.12,6.44,1.15l2.83-2.14a49.14,49.14,0,0,0,29.61,9.9A49.51,49.51,0,0,0-1356.5-190,49,49,0,0,0-1361.93-212.46Z" transform="translate(1455.34 239.41)"/></svg>