<svg id="Слой_1" data-name="Слой 1" xmlns="http://www.w3.org/2000/svg" viewBox="0 0 31 23.95"><defs>
    <style>.cls-1{fill:#eaeaea;}</style></defs><title>uralbankrecon</title>
    <path id="Фигура_1" data-name="Фигура 1" class="cls-1" d="M3.87,18.06a5.31,5.31,0,0,1-.72-2.67V4.59A5,5,0,0,0,0,7.18V14a9.89,9.89,0,0,0,3.87,4M4.41,3.24H7.54A1.62,1.62,0,0,0,7.54,0H4.41A4.48,4.48,0,0,0,0,4.54V6A5,5,0,0,1,4.41,3.24M28.59,5.76A6.86,6.86,0,0,0,21.95,0H14V15.38a5.44,5.44,0,0,1-5.4,5.37A9.74,9.74,0,0,1,0,15.51a8.55,8.55,0,0,0,17.11-.12V3.24h5.1a9.44,9.44,0,0,1,6.37,2.52m-.28,3.7a7.49,7.49,0,0,0,.4-2.55,9.53,9.53,0,0,0-3.86-2.16A4,4,0,0,1,25.55,7a3.89,3.89,0,0,1-.62,2.16,1.38,1.38,0,0,0,.23,1.93l.14.1A5.05,5.05,0,0,1,27.81,15,5.35,5.35,0,0,1,27,18.49a8.18,8.18,0,0,0,3.87-4,8.4,8.4,0,0,0-2.62-5M23.13,20.71H18a1.62,1.62,0,0,0,0,3.24h5.09A8.09,8.09,0,0,0,31,15.65v-.06a8.33,8.33,0,0,1-7.87,5.12" transform="translate(0)"/></svg>