<svg id="Слой_1" data-name="Слой 1" xmlns="http://www.w3.org/2000/svg" viewBox="0 0 22 32.99"><defs><style>.cls-1{fill:#eaeaea;}</style></defs><title>uralsib</title><path id="Фигура_14" data-name="Фигура 14" class="cls-1" d="M11,14.39C5.54,14.39.92,18.15.92,23a8.11,8.11,0,0,0,1.46,4.53C5,25.1,7.24,20.67,8.11,15.42a8.24,8.24,0,0,1,1.48-.26c0,.76-.64,12-4.64,16A11,11,0,0,1,8.6,11.27c.26-3.52.26-5,.27-6.73h.87s0,4.93-.05,6.54q.45-.05.92-.07c0-2.82,0-8,0-11h.74c0,3,0,8.18,0,11,.31,0,.61,0,.92.07,0-1.61-.05-6.52-.05-6.54h.88c0,1.76,0,3.2.27,6.73A11,11,0,0,1,17,31.19c-4-4-4.64-15.26-4.64-16a8.2,8.2,0,0,1,1.48.26c.87,5.25,3.14,9.69,5.73,12.11A8.11,8.11,0,0,0,21.08,23c0-4.85-4.62-8.6-10.08-8.6h0ZM7.58,32.46a11.06,11.06,0,0,0,6.83,0c-1.6-2.78-2.49-8.08-2.84-17.38H10.42c-.34,9.3-1.23,14.61-2.84,17.38Z" transform="translate(0 -0.01)"/></svg>