<svg id="Layer_1" data-name="Layer 1" xmlns="http://www.w3.org/2000/svg" viewBox="0 0 39.2 42.18"><defs><style>.cls-1{fill:#eaeaea;}</style></defs><title>vostochnybank</title><path class="cls-1" d="M.47,14.2A3.52,3.52,0,0,1,1.76,9.4L17.63.23a1.76,1.76,0,0,1,1.76,0L35.25,9.4a3.52,3.52,0,1,1-3.51,6.09L18.5,7.85,5.27,15.49A3.52,3.52,0,0,1,.47,14.2"/><path class="cls-1" d="M33.36,19.34H3.65A1.76,1.76,0,0,0,1.9,21.09V38.23a4,4,0,0,0,7.91,0V26.36h4.75V38.23a4,4,0,0,0,7.91,0V26.36H27.2V38.23a4,4,0,0,0,7.91,0V21.09a1.76,1.76,0,0,0-1.76-1.76M39.2,30.76"/></svg>