<svg id="Слой_1" data-name="Слой 1" xmlns="http://www.w3.org/2000/svg" viewBox="0 0 30 25"><defs><style>.cls-1{fill:#eaeaea;}</style></defs><title>vtb</title><path class="cls-1" d="M8.34,24.85A27.48,27.48,0,0,1,4,20.67a23.38,23.38,0,0,1-3.75-7c-.41-1.24-.42-1.2.14-2.78A24.67,24.67,0,0,1,4,4.41,32.48,32.48,0,0,1,7.73.62L8.52,0H30l-.21.71c-.12.39-.33,1-.47,1.38l-.25.67H9.28l-.49.42L8,3.88l-.3.26H18.05c5.69,0,10.35,0,10.35,0a22,22,0,0,1-1.12,1.93l-.5.8-10.72,0L5.34,7l-.4.6a3.67,3.67,0,0,0-.41.71c0,.09,2.15.11,10.51.11H25.56l-.67.7c-.37.38-1,1-1.45,1.34l-.77.64H3.1l-.25.71-.25.71.25.73a20.59,20.59,0,0,0,5.51,8.41l.66.59h8.72c4.8,0,8.72,0,8.72,0a17.84,17.84,0,0,0-.78-1.82A16.76,16.76,0,0,0,22.59,16l-.78-.8-8.32,0-8.32,0-.38-.78c-.21-.43-.47-1-.57-1.32L4,12.54h18.7L24,13.77A21,21,0,0,1,29,21.35a19.27,19.27,0,0,1,.85,3.19l.06.45H19.25C9.36,25,8.53,25,8.34,24.85Z" transform="translate(0)"/></svg>