<svg id="Layer_1" data-name="Layer 1" xmlns="http://www.w3.org/2000/svg" viewBox="0 0 211.52 278.12"><defs>
    <style>.cls-1{fill:#eaeaea;}.cls-2{fill:#fff;}.cls-3{fill:#fff;}</style></defs><title>yandex</title>
    <path class="cls-1" d="M315.19,296.54c0-15.62,1.31-25.53,33.65-49.67,26.78-20,112.6-88.29,112.6-88.29v114h65.27V436.7H335.57a20.45,20.45,0,0,1-20.39-20.39Z" transform="translate(-315.18 -158.58)"/><polygon class="cls-2" points="146.25 114.02 146.25 180.08 26.32 261.79 177.96 212.45 177.96 114.02 146.25 114.02"/><path class="cls-3" d="M406.63,269.18c7-8.36,17.26-11.31,22.88-6.59s4.5,15.32-2.51,23.68-17.26,11.3-22.88,6.58-4.5-15.32,2.51-23.67" transform="translate(-315.18 -158.58)"/></svg>