<?xml version="1.0" encoding="UTF-8"?>
<svg width="62px" height="18px" viewBox="0 0 62 18" version="1.1" xmlns="http://www.w3.org/2000/svg" xmlns:xlink="http://www.w3.org/1999/xlink">
    <!-- Generator: Sketch 61 (89581) - https://sketch.com -->
    <title>mirlogo copy</title>
    <desc>Created with Sketch.</desc>
    <defs>
        <linearGradient x1="-0.0306762236%" y1="49.980402%" x2="99.9738126%" y2="49.980402%" id="linearGradient-1">
            <stop stop-color="#5BABE4" offset="0%"></stop>
            <stop stop-color="#58A2DD" offset="33%"></stop>
            <stop stop-color="#4F8AC9" offset="87%"></stop>
            <stop stop-color="#4C83C4" offset="100%"></stop>
        </linearGradient>
    </defs>
    <g id="Page-1" stroke="none" stroke-width="1" fill="none" fill-rule="evenodd">
        <g id="1" transform="translate(-715.000000, -776.000000)" fill-rule="nonzero">
            <g id="mirlogo-copy" transform="translate(715.000000, 776.000000)">
                <path d="M34.5967302,1.89929504 L30.7820163,10.6337399 L30.3950954,10.6337399 L30.3950954,0 L25,0 L25,18 L29.5885559,18 C30.7932979,17.9991854 31.8877389,17.2566881 32.3923706,16.0978192 L36.2070845,7.36337437 L36.5940054,7.36337437 L36.5940054,18 L42,18 L42,0 L37.4032698,0 C36.1981724,-0.000830125019 35.1025734,0.74060429 34.5967302,1.89929504 L34.5967302,1.89929504 Z" id="Shape" fill="#45A658"></path>
                <path d="M13.4877158,2.36652237 L11.1954139,10.6349206 L10.790727,10.6349206 L8.4984251,2.36652237 C8.11074704,0.965763011 6.8799906,0.000849141346 5.47990425,0 L0,0 L0,17.997114 L5.49930704,17.997114 L5.49930704,7.36507937 L5.89290664,7.36507937 L9.03615976,18 L12.9638402,18 L16.1070934,7.36507937 L16.500693,7.36507937 L16.500693,18 L22,18 L22,0.00288600289 L16.5090084,0.00288600289 C15.1086675,0.00207841725 13.8766992,0.965879509 13.4877158,2.36652237 L13.4877158,2.36652237 Z" id="Shape" fill="#45A658"></path>
                <path d="M44,8 L44,18 L49.5090016,18 L49.5090016,12.1676471 L55.4353519,12.1676471 C57.93764,12.1631807 60.1662988,10.4940251 61,8 L44,8 Z" id="Shape" fill="#45A658"></path>
                <path d="M56.1256976,0 L44,0 C44.7545707,4.05540466 48.3125616,6.99866022 52.4620363,7 L61.882091,7 C62.2335371,5.28288855 61.7901717,3.49969418 60.6744526,2.14293599 C59.5587334,0.78617781 57.8887298,-0.000567199074 56.1256976,0 L56.1256976,0 Z" id="Shape" fill="url(#linearGradient-1)"></path>
            </g>
        </g>
    </g>
</svg>