<?xml version="1.0" encoding="UTF-8"?>
<svg width="71px" height="21px" viewBox="0 0 71 21" version="1.1" xmlns="http://www.w3.org/2000/svg" xmlns:xlink="http://www.w3.org/1999/xlink">
    <!-- Generator: Sketch 61 (89581) - https://sketch.com -->
    <title>visa copy 3</title>
    <desc>Created with Sketch.</desc>
    <g id="Page-1" stroke="none" stroke-width="1" fill="none" fill-rule="evenodd">
        <g id="1" transform="translate(-536.000000, -774.000000)" fill-rule="nonzero">
            <g id="visa-copy-3" transform="translate(536.500000, 774.000000)">
                <polyline id="Shape" fill="#2B3894" points="23 21 26.4637362 0 32 0 28.5366606 21 23 21"></polyline>
                <path d="M46.9992834,0.853885044 C46.0107961,0.445767148 44.4565887,0 42.5200994,0 C37.5780209,0 34.0991473,2.76119617 34.0701268,6.71436767 C34.0385984,9.63820861 36.552631,11.2691742 38.4479184,12.2412779 C40.3958726,13.2374771 41.0500872,13.8752555 41.0425634,14.7660368 C41.0289488,16.1285632 39.4876394,16.7527878 38.0505888,16.7527878 C36.0492512,16.7527878 34.9858839,16.4455699 33.3421071,15.685808 L32.6989992,15.3620245 L32,19.9157015 C33.1654764,20.4823228 35.3266057,20.974022 37.5690639,21 C42.8214107,21 46.2343612,18.2726882 46.2744883,14.0510775 C46.2924021,11.73226 44.9603267,9.97441644 42.0758354,8.52341425 C40.3288748,7.58030048 39.2569088,6.95532289 39.2690902,6.00053785 C39.270165,5.15493564 40.1748155,4.24984761 42.1328015,4.24984761 C43.7679796,4.22236366 44.9513698,4.6180573 45.8739341,5.03144609 L46.3228557,5.26411847 L47,0.853885044" id="Shape" fill="#2B3894"></path>
                <path d="M55.6229194,13.5421397 C56.0843412,12.3342284 57.8414162,7.66864201 57.8414162,7.66864201 C57.8090847,7.72386526 58.3004431,6.45100835 58.5818465,5.66349377 L58.9578494,7.47574955 C58.9578494,7.47574955 60.0263841,12.4913424 60.246717,13.5421397 L55.6233186,13.5421397 L55.6229194,13.5421397 Z M62.4935537,0 L58.1894783,0 C56.854708,0 55.8552269,0.371784663 55.2704666,1.74186559 L47,21 L52.8491997,21 C52.8491997,21 53.8035764,18.4091742 54.0199178,17.8406082 C54.6577655,17.8406082 60.3417156,17.8514972 61.1527961,17.8514972 C61.3196424,18.5849553 61.8309584,21 61.8309584,21 L67,21 L62.4927554,0 L62.4935537,0 Z" id="Shape" fill="#2B3894"></path>
                <path d="M18.2943267,0 L13.023989,14.3414159 L12.459365,11.4263389 C11.4771587,8.0674601 8.41977616,4.42672821 5,2.60246927 L9.82149459,21 L15.520221,20.9964963 L24,0 L18.2939408,0" id="Shape" fill="#2B3894"></path>
                <path d="M8.69964602,0 L0.0713274336,0 L0,0.457329522 C6.7139823,2.28501429 11.1562242,6.69661086 13,12 L11.1251622,1.86198448 C10.8018879,0.463862801 9.86159292,0.0494079216 8.69964602,0.000408329931" id="Shape" fill="#F79510"></path>
                <path d="M68.8196721,18.9394775 L69.0342477,18.9394775 C69.1858465,18.9394775 69.2170102,18.8508843 69.2170102,18.779815 C69.2170102,18.657472 69.1374777,18.6289145 69.0141211,18.6289145 L68.8196721,18.6289145 L68.8196721,18.939802 L68.8196721,18.9394775 Z M68.6343126,18.4926172 L69.0764486,18.4926172 C69.1796786,18.4926172 69.405616,18.5198767 69.405616,18.779815 C69.405616,18.8486127 69.3851647,18.9459679 69.2371368,19.0089242 L69.2371368,19.014441 C69.3647135,19.0361837 69.3715306,19.1569041 69.3789969,19.2539348 C69.388411,19.4087295 69.3789969,19.436638 69.4192501,19.4911569 L69.2273981,19.4911569 C69.1907158,19.4544865 69.199156,19.4256044 69.1907158,19.2633458 C69.1907158,19.1711829 69.1790294,19.0770729 68.9712709,19.0770729 L68.8190229,19.0770729 L68.8190229,19.4911569 L68.6336634,19.4911569 L68.6336634,18.4926172 L68.6343126,18.4926172 Z M68.9995131,19.8481259 C69.4539847,19.8481259 69.810745,19.4710368 69.810745,19.0001623 C69.810745,18.5286387 69.4536601,18.1518741 68.9995131,18.1518741 C68.545366,18.1518741 68.1886057,18.5286387 68.1886057,19.0001623 C68.1886057,19.4713613 68.545366,19.8481259 68.9995131,19.8481259 Z M68.9995131,18 C69.5598117,18 70,18.4481584 70,19.0001623 C70,19.5518416 69.5598117,20 68.9995131,20 C68.439539,20 68,19.5518416 68,19.0001623 C68,18.4481584 68.439539,18 68.9995131,18 L68.9995131,18 Z" id="Shape" fill="#2B3894"></path>
            </g>
        </g>
    </g>
</svg>